# MagicaVoxel @ Ephtracy

# group
o 

# material
mtllib column.mtl
usemtl palette

# normals
vn -1 0 0
vn 1 0 0
vn 0 0 1
vn 0 0 -1
vn 0 -1 0
vn 0 1 0

# texcoords
vt 0.396484 0.5
vt 0.419922 0.5
vt 0.560547 0.5
vt 0.701172 0.5

# verts
v -0.1 0 2
v -0.1 0 1.7
v -0.1 0.1 1.9
v -0.1 0.1 1.8
v -0.1 0.2 2
v -0.1 0.2 1.9
v -0.1 0.3 2
v -0.1 0.3 1.9
v -0.1 0.3 1.8
v -0.1 0.5 1.8
v -0.1 0.5 1.7
v -0.1 0.6 1.8
v -0.1 0.6 1.7
v -0.1 0.9 2
v -0.1 0.9 1.9
v -0.1 1 1.9
v -0.1 1 1.8
v -0.1 1.2 2
v -0.1 1.2 1.9
v -0.1 1.3 1.9
v -0.1 1.3 1.8
v -0.1 1.4 2
v -0.1 1.4 1.9
v -0.1 1.6 1.9
v -0.1 1.6 1.8
v -0.1 1.6 1.7
v -0.1 1.7 1.9
v -0.1 1.7 1.8
v -0.1 1.7 1.7
v -0.1 2.1 2
v -0.1 2.1 1.9
v -0.1 2.2 2
v -0.1 2.2 1.9
v -0.1 2.3 2
v -0.1 2.3 1.9
v -0.1 2.4 2
v -0.1 2.4 1.9
v -0.1 2.7 1.8
v -0.1 2.7 1.7
v -0.1 2.8 1.8
v -0.1 2.8 1.7
v -0.1 2.9 1.9
v -0.1 2.9 1.8
v -0.1 3.1 2
v -0.1 3.1 1.9
v -0.1 3.1 1.8
v -0.1 3.2 1.8
v -0.1 3.2 1.7
v -0.1 3.3 2
v -0.1 3.3 1.9
v -0.1 3.4 1.8
v -0.1 3.4 1.7
v -0.1 3.6 2
v -0.1 3.6 1.9
v -0.1 3.7 2
v -0.1 3.7 1.9
v -0.1 3.8 1.9
v -0.1 3.8 1.8
v -0.1 3.9 1.9
v -0.1 3.9 1.8
v -0.1 4 2
v -0.1 4 1.7
v 0.2 0 2
v 0.2 0 1.7
v 0.2 0.4 2
v 0.2 0.4 1.9
v 0.2 0.5 2
v 0.2 0.5 1.9
v 0.2 0.5 1.8
v 0.2 0.6 1.9
v 0.2 0.6 1.8
v 0.2 0.9 1.9
v 0.2 0.9 1.7
v 0.2 1 1.8
v 0.2 1 1.7
v 0.2 1.2 2
v 0.2 1.2 1.9
v 0.2 1.2 1.8
v 0.2 1.3 2
v 0.2 1.3 1.9
v 0.2 1.3 1.8
v 0.2 1.3 1.7
v 0.2 1.6 1.8
v 0.2 1.6 1.7
v 0.2 1.7 1.9
v 0.2 1.7 1.8
v 0.2 1.8 2
v 0.2 1.8 1.9
v 0.2 2 1.9
v 0.2 2 1.8
v 0.2 2.1 2
v 0.2 2.1 1.9
v 0.2 2.1 1.8
v 0.2 2.2 2
v 0.2 2.2 1.9
v 0.2 2.3 2
v 0.2 2.3 1.9
v 0.2 2.5 1.9
v 0.2 2.5 1.8
v 0.2 2.8 1.9
v 0.2 2.8 1.8
v 0.2 2.9 1.9
v 0.2 2.9 1.8
v 0.2 3 1.8
v 0.2 3 1.7
v 0.2 3.1 1.8
v 0.2 3.1 1.7
v 0.2 3.2 1.8
v 0.2 3.2 1.7
v 0.2 3.5 1.8
v 0.2 3.5 1.7
v 0.2 3.7 1.9
v 0.2 3.7 1.8
v 0.2 3.7 1.7
v 0.2 3.8 1.9
v 0.2 3.8 1.8
v 0.2 3.8 1.7
v 0.2 3.9 1.9
v 0.2 3.9 1.8
v 0.2 4 2
v 0.2 4 1.9
v 0.2 4 1.8
v 0.2 4 1.7
v -0.1 0 2
v -0.1 0.2 2
v -0.1 0.3 2
v -0.1 0.9 2
v -0.1 1.2 2
v -0.1 1.4 2
v -0.1 2.1 2
v -0.1 2.2 2
v -0.1 2.3 2
v -0.1 2.4 2
v -0.1 3.1 2
v -0.1 3.3 2
v -0.1 3.6 2
v -0.1 3.7 2
v -0.1 4 2
v 0 0.1 2
v 0 0.2 2
v 0 0.3 2
v 0 0.6 2
v 0 0.8 2
v 0 0.9 2
v 0 1.2 2
v 0 1.4 2
v 0 2.1 2
v 0 2.2 2
v 0 2.3 2
v 0 2.4 2
v 0 2.6 2
v 0 3.1 2
v 0 3.2 2
v 0 3.3 2
v 0 3.4 2
v 0 3.6 2
v 0 3.7 2
v 0 3.8 2
v 0.1 0.1 2
v 0.1 0.3 2
v 0.1 0.4 2
v 0.1 0.5 2
v 0.1 0.6 2
v 0.1 0.8 2
v 0.1 1.2 2
v 0.1 1.3 2
v 0.1 1.8 2
v 0.1 2.1 2
v 0.1 2.2 2
v 0.1 2.3 2
v 0.1 2.6 2
v 0.1 3.1 2
v 0.1 3.2 2
v 0.1 3.4 2
v 0.1 3.7 2
v 0.1 3.8 2
v 0.2 0 2
v 0.2 0.4 2
v 0.2 0.5 2
v 0.2 1.2 2
v 0.2 1.3 2
v 0.2 1.8 2
v 0.2 2.1 2
v 0.2 2.2 2
v 0.2 2.3 2
v 0.2 4 2
v -0.1 0 1.7
v -0.1 0.5 1.7
v -0.1 0.6 1.7
v -0.1 1.6 1.7
v -0.1 1.7 1.7
v -0.1 2.7 1.7
v -0.1 2.8 1.7
v -0.1 3.2 1.7
v -0.1 3.4 1.7
v -0.1 4 1.7
v 0 0.5 1.7
v 0 0.6 1.7
v 0 2.6 1.7
v 0 2.7 1.7
v 0 2.8 1.7
v 0 2.9 1.7
v 0 3.2 1.7
v 0 3.4 1.7
v 0 3.7 1.7
v 0 3.8 1.7
v 0.1 0.9 1.7
v 0.1 1 1.7
v 0.1 1.3 1.7
v 0.1 1.6 1.7
v 0.1 1.7 1.7
v 0.1 2.6 1.7
v 0.1 2.8 1.7
v 0.1 2.9 1.7
v 0.1 3 1.7
v 0.1 3.1 1.7
v 0.1 3.2 1.7
v 0.1 3.4 1.7
v 0.1 3.5 1.7
v 0.1 3.7 1.7
v 0.1 3.8 1.7
v 0.2 0 1.7
v 0.2 0.9 1.7
v 0.2 1 1.7
v 0.2 1.3 1.7
v 0.2 1.6 1.7
v 0.2 3 1.7
v 0.2 3.1 1.7
v 0.2 3.2 1.7
v 0.2 3.5 1.7
v 0.2 3.7 1.7
v 0.2 3.8 1.7
v 0.2 4 1.7
v -0.1 0 2
v 0.2 0 2
v -0.1 0 1.7
v 0.2 0 1.7
v -0.1 4 2
v 0.2 4 2
v 0.1 4 1.9
v 0.2 4 1.9
v 0.1 4 1.8
v 0.2 4 1.8
v -0.1 4 1.7
v 0.2 4 1.7

# faces
f 3/2/1 2/2/1 1/2/1
f 4/2/1 2/2/1 3/2/1
f 5/2/1 3/2/1 1/2/1
f 6/1/1 4/1/1 3/1/1
f 6/2/1 3/2/1 5/2/1
f 7/4/1 6/4/1 5/4/1
f 8/1/1 4/1/1 6/1/1
f 8/4/1 6/4/1 7/4/1
f 9/2/1 2/2/1 4/2/1
f 9/1/1 4/1/1 8/1/1
f 10/2/1 8/2/1 7/2/1
f 10/2/1 2/2/1 9/2/1
f 10/2/1 9/2/1 8/2/1
f 11/2/1 2/2/1 10/2/1
f 12/2/1 10/2/1 7/2/1
f 12/3/1 11/3/1 10/3/1
f 13/3/1 11/3/1 12/3/1
f 14/2/1 12/2/1 7/2/1
f 14/2/1 13/2/1 12/2/1
f 15/2/1 13/2/1 14/2/1
f 16/1/1 15/1/1 14/1/1
f 16/2/1 13/2/1 15/2/1
f 17/2/1 13/2/1 16/2/1
f 18/1/1 16/1/1 14/1/1
f 18/1/1 17/1/1 16/1/1
f 19/1/1 17/1/1 18/1/1
f 20/3/1 19/3/1 18/3/1
f 20/1/1 17/1/1 19/1/1
f 21/2/1 13/2/1 17/2/1
f 21/1/1 17/1/1 20/1/1
f 22/3/1 20/3/1 18/3/1
f 23/2/1 21/2/1 20/2/1
f 23/3/1 20/3/1 22/3/1
f 24/2/1 23/2/1 22/2/1
f 24/2/1 21/2/1 23/2/1
f 25/2/1 13/2/1 21/2/1
f 25/2/1 21/2/1 24/2/1
f 26/2/1 13/2/1 25/2/1
f 27/2/1 24/2/1 22/2/1
f 27/4/1 25/4/1 24/4/1
f 28/3/1 26/3/1 25/3/1
f 28/4/1 25/4/1 27/4/1
f 29/3/1 26/3/1 28/3/1
f 30/2/1 27/2/1 22/2/1
f 30/2/1 28/2/1 27/2/1
f 30/2/1 29/2/1 28/2/1
f 31/2/1 29/2/1 30/2/1
f 32/3/1 31/3/1 30/3/1
f 33/2/1 29/2/1 31/2/1
f 33/3/1 31/3/1 32/3/1
f 34/2/1 33/2/1 32/2/1
f 35/2/1 29/2/1 33/2/1
f 35/2/1 33/2/1 34/2/1
f 36/4/1 35/4/1 34/4/1
f 37/2/1 29/2/1 35/2/1
f 37/4/1 35/4/1 36/4/1
f 38/2/1 37/2/1 36/2/1
f 38/2/1 29/2/1 37/2/1
f 39/2/1 29/2/1 38/2/1
f 40/2/1 38/2/1 36/2/1
f 40/3/1 39/3/1 38/3/1
f 41/3/1 39/3/1 40/3/1
f 42/2/1 40/2/1 36/2/1
f 42/2/1 41/2/1 40/2/1
f 43/2/1 41/2/1 42/2/1
f 44/2/1 42/2/1 36/2/1
f 45/1/1 43/1/1 42/1/1
f 45/2/1 42/2/1 44/2/1
f 46/2/1 41/2/1 43/2/1
f 46/1/1 43/1/1 45/1/1
f 47/2/1 46/2/1 45/2/1
f 47/2/1 41/2/1 46/2/1
f 48/2/1 41/2/1 47/2/1
f 49/1/1 45/1/1 44/1/1
f 50/2/1 47/2/1 45/2/1
f 50/1/1 45/1/1 49/1/1
f 51/3/1 48/3/1 47/3/1
f 51/2/1 47/2/1 50/2/1
f 51/2/1 50/2/1 49/2/1
f 52/3/1 48/3/1 51/3/1
f 53/2/1 51/2/1 49/2/1
f 53/2/1 52/2/1 51/2/1
f 54/2/1 52/2/1 53/2/1
f 55/1/1 54/1/1 53/1/1
f 56/2/1 52/2/1 54/2/1
f 56/1/1 54/1/1 55/1/1
f 57/2/1 56/2/1 55/2/1
f 57/2/1 52/2/1 56/2/1
f 58/2/1 52/2/1 57/2/1
f 59/2/1 57/2/1 55/2/1
f 59/3/1 58/3/1 57/3/1
f 60/2/1 52/2/1 58/2/1
f 60/3/1 58/3/1 59/3/1
f 61/2/1 59/2/1 55/2/1
f 61/2/1 60/2/1 59/2/1
f 62/2/1 52/2/1 60/2/1
f 62/2/1 60/2/1 61/2/1
f 63/2/2 64/2/2 65/2/2
f 65/2/2 64/2/2 66/2/2
f 65/1/2 66/1/2 67/1/2
f 66/2/2 64/2/2 68/2/2
f 67/1/2 66/1/2 68/1/2
f 68/2/2 64/2/2 69/2/2
f 67/2/2 68/2/2 70/2/2
f 68/3/2 69/3/2 70/3/2
f 69/2/2 64/2/2 71/2/2
f 70/3/2 69/3/2 71/3/2
f 67/2/2 70/2/2 72/2/2
f 70/2/2 71/2/2 72/2/2
f 71/2/2 64/2/2 73/2/2
f 72/2/2 71/2/2 73/2/2
f 72/3/2 73/3/2 74/3/2
f 74/3/2 73/3/2 75/3/2
f 67/2/2 72/2/2 76/2/2
f 72/3/2 74/3/2 77/3/2
f 76/2/2 72/2/2 77/2/2
f 74/2/2 75/2/2 78/2/2
f 77/3/2 74/3/2 78/3/2
f 76/4/2 77/4/2 79/4/2
f 77/4/2 78/4/2 79/4/2
f 79/4/2 78/4/2 80/4/2
f 78/2/2 75/2/2 81/2/2
f 80/4/2 78/4/2 81/4/2
f 81/2/2 75/2/2 82/2/2
f 80/4/2 81/4/2 83/4/2
f 81/4/2 82/4/2 83/4/2
f 83/4/2 82/4/2 84/4/2
f 79/2/2 80/2/2 85/2/2
f 80/4/2 83/4/2 85/4/2
f 83/2/2 84/2/2 86/2/2
f 85/4/2 83/4/2 86/4/2
f 79/2/2 85/2/2 87/2/2
f 85/3/2 86/3/2 88/3/2
f 87/2/2 85/2/2 88/2/2
f 87/1/2 88/1/2 89/1/2
f 88/3/2 86/3/2 89/3/2
f 86/2/2 84/2/2 90/2/2
f 89/3/2 86/3/2 90/3/2
f 87/1/2 89/1/2 91/1/2
f 89/2/2 90/2/2 92/2/2
f 91/1/2 89/1/2 92/1/2
f 90/2/2 84/2/2 93/2/2
f 92/2/2 90/2/2 93/2/2
f 91/2/2 92/2/2 94/2/2
f 92/4/2 93/4/2 95/4/2
f 94/2/2 92/2/2 95/2/2
f 94/3/2 95/3/2 96/3/2
f 95/4/2 93/4/2 97/4/2
f 96/3/2 95/3/2 97/3/2
f 96/2/2 97/2/2 98/2/2
f 97/4/2 93/4/2 98/4/2
f 93/2/2 84/2/2 99/2/2
f 98/4/2 93/4/2 99/4/2
f 96/2/2 98/2/2 100/2/2
f 98/2/2 99/2/2 100/2/2
f 99/2/2 84/2/2 101/2/2
f 100/2/2 99/2/2 101/2/2
f 96/2/2 100/2/2 102/2/2
f 100/4/2 101/4/2 102/4/2
f 101/2/2 84/2/2 103/2/2
f 102/4/2 101/4/2 103/4/2
f 102/2/2 103/2/2 104/2/2
f 103/2/2 84/2/2 104/2/2
f 104/2/2 84/2/2 105/2/2
f 102/2/2 104/2/2 106/2/2
f 104/1/2 105/1/2 106/1/2
f 106/1/2 105/1/2 107/1/2
f 102/2/2 106/2/2 108/2/2
f 106/2/2 107/2/2 108/2/2
f 108/2/2 107/2/2 109/2/2
f 102/2/2 108/2/2 110/2/2
f 108/1/2 109/1/2 110/1/2
f 110/1/2 109/1/2 111/1/2
f 96/2/2 102/2/2 112/2/2
f 102/2/2 110/2/2 112/2/2
f 110/2/2 111/2/2 112/2/2
f 112/2/2 111/2/2 113/2/2
f 113/2/2 111/2/2 114/2/2
f 96/2/2 112/2/2 115/2/2
f 112/1/2 113/1/2 115/1/2
f 113/4/2 114/4/2 116/4/2
f 115/1/2 113/1/2 116/1/2
f 116/4/2 114/4/2 117/4/2
f 96/2/2 115/2/2 118/2/2
f 115/2/2 116/2/2 118/2/2
f 116/2/2 117/2/2 118/2/2
f 118/2/2 117/2/2 119/2/2
f 96/2/2 118/2/2 120/2/2
f 118/3/2 119/3/2 121/3/2
f 120/2/2 118/2/2 121/2/2
f 119/2/2 117/2/2 122/2/2
f 121/3/2 119/3/2 122/3/2
f 122/2/2 117/2/2 123/2/2
f 139/2/3 125/2/3 124/2/3
f 140/4/3 126/4/3 125/4/3
f 140/2/3 125/2/3 139/2/3
f 141/2/3 127/2/3 126/2/3
f 141/4/3 126/4/3 140/4/3
f 142/2/3 127/2/3 141/2/3
f 143/2/3 127/2/3 142/2/3
f 144/1/3 128/1/3 127/1/3
f 144/2/3 127/2/3 143/2/3
f 145/3/3 129/3/3 128/3/3
f 145/1/3 128/1/3 144/1/3
f 146/2/3 130/2/3 129/2/3
f 146/3/3 129/3/3 145/3/3
f 147/3/3 131/3/3 130/3/3
f 147/2/3 130/2/3 146/2/3
f 148/2/3 132/2/3 131/2/3
f 148/3/3 131/3/3 147/3/3
f 149/4/3 133/4/3 132/4/3
f 149/2/3 132/2/3 148/2/3
f 150/2/3 134/2/3 133/2/3
f 150/4/3 133/4/3 149/4/3
f 151/2/3 134/2/3 150/2/3
f 152/1/3 135/1/3 134/1/3
f 152/2/3 134/2/3 151/2/3
f 153/1/3 135/1/3 152/1/3
f 154/2/3 136/2/3 135/2/3
f 154/1/3 135/1/3 153/1/3
f 155/2/3 136/2/3 154/2/3
f 156/1/3 137/1/3 136/1/3
f 156/2/3 136/2/3 155/2/3
f 157/2/3 138/2/3 137/2/3
f 157/1/3 137/1/3 156/1/3
f 158/2/3 138/2/3 157/2/3
f 159/2/3 139/2/3 124/2/3
f 159/3/3 140/3/3 139/3/3
f 159/3/3 141/3/3 140/3/3
f 160/2/3 142/2/3 141/2/3
f 160/3/3 141/3/3 159/3/3
f 161/2/3 142/2/3 160/2/3
f 162/2/3 142/2/3 161/2/3
f 163/3/3 143/3/3 142/3/3
f 163/2/3 142/2/3 162/2/3
f 164/2/3 144/2/3 143/2/3
f 164/3/3 143/3/3 163/3/3
f 164/2/3 145/2/3 144/2/3
f 164/2/3 146/2/3 145/2/3
f 164/2/3 147/2/3 146/2/3
f 164/2/3 148/2/3 147/2/3
f 164/2/3 149/2/3 148/2/3
f 164/2/3 150/2/3 149/2/3
f 164/2/3 151/2/3 150/2/3
f 165/2/3 151/2/3 164/2/3
f 166/2/3 151/2/3 165/2/3
f 167/2/3 151/2/3 166/2/3
f 168/2/3 151/2/3 167/2/3
f 169/2/3 151/2/3 168/2/3
f 170/2/3 151/2/3 169/2/3
f 171/3/3 152/3/3 151/3/3
f 171/2/3 151/2/3 170/2/3
f 172/4/3 153/4/3 152/4/3
f 172/3/3 152/3/3 171/3/3
f 173/3/3 154/3/3 153/3/3
f 173/4/3 153/4/3 172/4/3
f 173/3/3 155/3/3 154/3/3
f 174/4/3 156/4/3 155/4/3
f 174/3/3 155/3/3 173/3/3
f 174/4/3 157/4/3 156/4/3
f 175/3/3 158/3/3 157/3/3
f 175/4/3 157/4/3 174/4/3
f 176/2/3 138/2/3 158/2/3
f 176/3/3 158/3/3 175/3/3
f 177/2/3 161/2/3 160/2/3
f 177/2/3 160/2/3 159/2/3
f 177/2/3 159/2/3 124/2/3
f 178/1/3 162/1/3 161/1/3
f 178/2/3 161/2/3 177/2/3
f 179/2/3 163/2/3 162/2/3
f 179/1/3 162/1/3 178/1/3
f 179/2/3 164/2/3 163/2/3
f 179/2/3 165/2/3 164/2/3
f 180/4/3 166/4/3 165/4/3
f 180/2/3 165/2/3 179/2/3
f 181/2/3 167/2/3 166/2/3
f 181/4/3 166/4/3 180/4/3
f 182/1/3 168/1/3 167/1/3
f 182/2/3 167/2/3 181/2/3
f 183/2/3 169/2/3 168/2/3
f 183/1/3 168/1/3 182/1/3
f 184/3/3 170/3/3 169/3/3
f 184/2/3 169/2/3 183/2/3
f 185/2/3 173/2/3 172/2/3
f 185/3/3 170/3/3 184/3/3
f 185/2/3 175/2/3 174/2/3
f 185/2/3 174/2/3 173/2/3
f 185/2/3 176/2/3 175/2/3
f 185/2/3 171/2/3 170/2/3
f 185/2/3 172/2/3 171/2/3
f 186/2/3 138/2/3 176/2/3
f 186/2/3 176/2/3 185/2/3
f 187/2/4 188/2/4 197/2/4
f 188/3/4 189/3/4 197/3/4
f 189/2/4 190/2/4 198/2/4
f 197/3/4 189/3/4 198/3/4
f 191/2/4 192/2/4 199/2/4
f 192/3/4 193/3/4 200/3/4
f 199/2/4 192/2/4 200/2/4
f 193/2/4 194/2/4 201/2/4
f 200/3/4 193/3/4 201/3/4
f 201/2/4 194/2/4 202/2/4
f 194/3/4 195/3/4 203/3/4
f 202/2/4 194/2/4 203/2/4
f 195/2/4 196/2/4 204/2/4
f 203/3/4 195/3/4 204/3/4
f 204/2/4 196/2/4 205/2/4
f 205/2/4 196/2/4 206/2/4
f 198/2/4 190/2/4 207/2/4
f 197/2/4 198/2/4 207/2/4
f 207/2/4 190/2/4 208/2/4
f 208/2/4 190/2/4 209/2/4
f 190/3/4 191/3/4 210/3/4
f 209/2/4 190/2/4 210/2/4
f 191/2/4 199/2/4 211/2/4
f 210/3/4 191/3/4 211/3/4
f 199/3/4 200/3/4 212/3/4
f 211/2/4 199/2/4 212/2/4
f 200/3/4 201/3/4 212/3/4
f 201/4/4 202/4/4 213/4/4
f 212/3/4 201/3/4 213/3/4
f 202/3/4 203/3/4 214/3/4
f 213/4/4 202/4/4 214/4/4
f 203/3/4 204/3/4 214/3/4
f 214/3/4 204/3/4 215/3/4
f 215/3/4 204/3/4 216/3/4
f 216/3/4 204/3/4 217/3/4
f 204/4/4 205/4/4 218/4/4
f 217/3/4 204/3/4 218/3/4
f 218/4/4 205/4/4 219/4/4
f 205/3/4 206/3/4 220/3/4
f 219/4/4 205/4/4 220/4/4
f 206/2/4 196/2/4 221/2/4
f 220/3/4 206/3/4 221/3/4
f 187/2/4 197/2/4 222/2/4
f 197/2/4 207/2/4 222/2/4
f 207/3/4 208/3/4 223/3/4
f 222/2/4 207/2/4 223/2/4
f 208/2/4 209/2/4 224/2/4
f 223/3/4 208/3/4 224/3/4
f 209/4/4 210/4/4 225/4/4
f 224/2/4 209/2/4 225/2/4
f 212/2/4 213/2/4 226/2/4
f 225/4/4 210/4/4 226/4/4
f 211/2/4 212/2/4 226/2/4
f 210/2/4 211/2/4 226/2/4
f 213/2/4 214/2/4 226/2/4
f 214/2/4 215/2/4 226/2/4
f 215/1/4 216/1/4 227/1/4
f 226/2/4 215/2/4 227/2/4
f 216/2/4 217/2/4 228/2/4
f 227/1/4 216/1/4 228/1/4
f 217/1/4 218/1/4 229/1/4
f 228/2/4 217/2/4 229/2/4
f 218/1/4 219/1/4 229/1/4
f 219/2/4 220/2/4 230/2/4
f 229/1/4 219/1/4 230/1/4
f 220/4/4 221/4/4 231/4/4
f 230/2/4 220/2/4 231/2/4
f 221/2/4 196/2/4 232/2/4
f 231/4/4 221/4/4 232/4/4
f 232/2/4 196/2/4 233/2/4
f 236/2/5 235/2/5 234/2/5
f 237/2/5 235/2/5 236/2/5
f 238/2/6 239/2/6 240/2/6
f 240/2/6 239/2/6 241/2/6
f 238/2/6 240/2/6 242/2/6
f 240/3/6 241/3/6 242/3/6
f 242/3/6 241/3/6 243/3/6
f 238/2/6 242/2/6 244/2/6
f 242/2/6 243/2/6 244/2/6
f 244/2/6 243/2/6 245/2/6
