# MagicaVoxel @ Ephtracy

# group
o 

# material
mtllib rainbow1.mtl
usemtl palette

# normals
vn -1 0 0
vn 1 0 0
vn 0 0 1
vn 0 0 -1
vn 0 -1 0
vn 0 1 0

# texcoords
vt 0.419922 0.5
vt 0.560547 0.5
vt 0.701172 0.5
vt 0.958984 0.5

# verts
v 0 -0.5 2
v 0 -0.5 0.5
v 0 -0.5 0.4
v 0 -0.5 -0.3
v 0 -0.5 -0.4
v 0 -0.5 -0.9
v 0 -0.5 -1.2
v 0 -0.5 -1.6
v 0 -0.5 -1.8
v 0 -0.5 -2
v 0 -0.4 2
v 0 -0.4 1.9
v 0 -0.4 1.4
v 0 -0.4 1.2
v 0 -0.4 0.9
v 0 -0.4 0.5
v 0 -0.4 0.4
v 0 -0.4 0.3
v 0 -0.4 -0.2
v 0 -0.4 -0.3
v 0 -0.4 -0.9
v 0 -0.4 -1.2
v 0 -0.3 2
v 0 -0.3 1.9
v 0 -0.3 1.7
v 0 -0.3 1.4
v 0 -0.3 1.3
v 0 -0.3 1.2
v 0 -0.3 1
v 0 -0.3 0.9
v 0 -0.3 0.7
v 0 -0.3 0.4
v 0 -0.3 0.2
v 0 -0.3 0.0999999
v 0 -0.3 -2.38419e-007
v 0 -0.3 -0.2
v 0 -0.3 -0.4
v 0 -0.3 -0.7
v 0 -0.3 -0.8
v 0 -0.3 -1.1
v 0 -0.3 -1.6
v 0 -0.3 -1.8
v 0 -0.2 1.7
v 0 -0.2 1.4
v 0 -0.2 1.3
v 0 -0.2 1.2
v 0 -0.2 1
v 0 -0.2 0.9
v 0 -0.2 0.7
v 0 -0.2 0.3
v 0 -0.2 0.2
v 0 -0.2 0.0999999
v 0 -0.2 -2.38419e-007
v 0 -0.2 -0.7
v 0 -0.2 -1.2
v 0 -0.2 -1.6
v 0 -0.2 -1.7
v 0 -0.2 -1.8
v 0 -0.2 -1.9
v 0 -0.2 -2
v 0 -0.1 1.6
v 0 -0.1 1.5
v 0 -0.1 1.4
v 0 -0.1 1.3
v 0 -0.1 1.2
v 0 -0.1 -0.8
v 0 -0.1 -1.1
v 0 -0.1 -1.2
v 0 -0.1 -1.6
v 0 -0.1 -1.7
v 0 -0.1 -1.8
v 0 -0.1 -1.9
v 0 -0.1 -2
v 0 0 1.7
v 0 0 1.6
v 0 0 1.5
v 0 0 1.3
v 0 0 -1.6
v 0 0 -1.7
v 0 0 -1.9
v 0 0.1 -1.6
v 0 0.1 -1.7
v 0 0.2 1.8
v 0 0.2 1.7
v 0 0.2 1.6
v 0 0.2 1.5
v 0 0.2 1.3
v 0 0.2 -1
v 0 0.2 -1.1
v 0 0.2 -1.4
v 0 0.2 -1.6
v 0 0.2 -1.7
v 0 0.2 -1.8
v 0 0.2 -1.9
v 0 0.2 -2
v 0 0.3 1.9
v 0 0.3 1.8
v 0 0.3 1.7
v 0 0.3 1.6
v 0 0.3 1.5
v 0 0.3 1.4
v 0 0.3 1.3
v 0 0.3 1.2
v 0 0.3 0.9
v 0 0.3 0.8
v 0 0.3 0.3
v 0 0.3 -0.2
v 0 0.3 -0.9
v 0 0.3 -1
v 0 0.3 -1.1
v 0 0.3 -1.4
v 0 0.3 -1.8
v 0 0.3 -1.9
v 0 0.3 -2
v 0 0.4 2
v 0 0.4 1.9
v 0 0.4 1.8
v 0 0.4 1.4
v 0 0.4 1.3
v 0 0.4 1.2
v 0 0.4 1
v 0 0.4 0.9
v 0 0.4 0.8
v 0 0.4 0.4
v 0 0.4 0.3
v 0 0.4 0.2
v 0 0.4 -2.38419e-007
v 0 0.4 -0.1
v 0 0.4 -0.9
v 0 0.4 -1
v 0 0.5 2
v 0 0.5 1.9
v 0 0.5 1.3
v 0 0.5 1.2
v 0 0.5 1
v 0 0.5 0.9
v 0 0.5 0.7
v 0 0.5 0.5
v 0 0.5 0.4
v 0 0.5 0.3
v 0 0.5 -2.38419e-007
v 0 0.5 -0.1
v 0 0.5 -0.3
v 0 0.5 -0.4
v 0 0.5 -0.8
v 0 0.5 -0.9
v 0 0.5 -1.3
v 0 0.5 -1.4
v 0 0.5 -1.8
v 0 0.5 -1.9
v 0 0.6 1.2
v 0 0.6 0.9
v 0 0.6 0.7
v 0 0.6 0.5
v 0 0.6 0.2
v 0 0.6 -0.2
v 0 0.6 -0.3
v 0 0.6 -0.4
v 0 0.6 -0.8
v 0 0.6 -0.9
v 0 0.6 -1.3
v 0 0.6 -1.4
v 0 0.6 -1.8
v 0 0.6 -1.9
v 0 0.7 2
v 0 0.7 -2
v 0.1 -0.5 2
v 0.1 -0.5 0.5
v 0.1 -0.5 0.4
v 0.1 -0.5 -0.3
v 0.1 -0.5 -0.4
v 0.1 -0.5 -0.9
v 0.1 -0.5 -1.2
v 0.1 -0.5 -1.6
v 0.1 -0.5 -1.8
v 0.1 -0.5 -2
v 0.1 -0.4 2
v 0.1 -0.4 1.9
v 0.1 -0.4 1.4
v 0.1 -0.4 1.2
v 0.1 -0.4 0.9
v 0.1 -0.4 0.5
v 0.1 -0.4 0.4
v 0.1 -0.4 0.3
v 0.1 -0.4 -0.2
v 0.1 -0.4 -0.3
v 0.1 -0.4 -0.9
v 0.1 -0.4 -1.2
v 0.1 -0.3 2
v 0.1 -0.3 1.9
v 0.1 -0.3 1.7
v 0.1 -0.3 1.4
v 0.1 -0.3 1.3
v 0.1 -0.3 1.2
v 0.1 -0.3 1
v 0.1 -0.3 0.9
v 0.1 -0.3 0.7
v 0.1 -0.3 0.4
v 0.1 -0.3 0.2
v 0.1 -0.3 0.0999999
v 0.1 -0.3 -2.38419e-007
v 0.1 -0.3 -0.2
v 0.1 -0.3 -0.4
v 0.1 -0.3 -0.7
v 0.1 -0.3 -0.8
v 0.1 -0.3 -1.1
v 0.1 -0.3 -1.6
v 0.1 -0.3 -1.8
v 0.1 -0.2 1.7
v 0.1 -0.2 1.4
v 0.1 -0.2 1.3
v 0.1 -0.2 1.2
v 0.1 -0.2 1
v 0.1 -0.2 0.9
v 0.1 -0.2 0.7
v 0.1 -0.2 0.3
v 0.1 -0.2 0.2
v 0.1 -0.2 0.0999999
v 0.1 -0.2 -2.38419e-007
v 0.1 -0.2 -0.7
v 0.1 -0.2 -1.2
v 0.1 -0.2 -1.6
v 0.1 -0.2 -1.7
v 0.1 -0.2 -1.8
v 0.1 -0.2 -1.9
v 0.1 -0.2 -2
v 0.1 -0.1 1.6
v 0.1 -0.1 1.5
v 0.1 -0.1 1.4
v 0.1 -0.1 1.3
v 0.1 -0.1 1.2
v 0.1 -0.1 -0.8
v 0.1 -0.1 -1.1
v 0.1 -0.1 -1.2
v 0.1 -0.1 -1.6
v 0.1 -0.1 -1.7
v 0.1 -0.1 -1.8
v 0.1 -0.1 -1.9
v 0.1 -0.1 -2
v 0.1 0 1.7
v 0.1 0 1.6
v 0.1 0 1.5
v 0.1 0 1.3
v 0.1 0 -1.6
v 0.1 0 -1.7
v 0.1 0 -1.9
v 0.1 0.1 -1.6
v 0.1 0.1 -1.7
v 0.1 0.2 1.8
v 0.1 0.2 1.7
v 0.1 0.2 1.6
v 0.1 0.2 1.5
v 0.1 0.2 1.3
v 0.1 0.2 -1
v 0.1 0.2 -1.1
v 0.1 0.2 -1.4
v 0.1 0.2 -1.6
v 0.1 0.2 -1.7
v 0.1 0.2 -1.8
v 0.1 0.2 -1.9
v 0.1 0.2 -2
v 0.1 0.3 1.9
v 0.1 0.3 1.8
v 0.1 0.3 1.7
v 0.1 0.3 1.6
v 0.1 0.3 1.5
v 0.1 0.3 1.4
v 0.1 0.3 1.3
v 0.1 0.3 1.2
v 0.1 0.3 0.9
v 0.1 0.3 0.8
v 0.1 0.3 0.3
v 0.1 0.3 -0.2
v 0.1 0.3 -0.9
v 0.1 0.3 -1
v 0.1 0.3 -1.1
v 0.1 0.3 -1.4
v 0.1 0.3 -1.8
v 0.1 0.3 -1.9
v 0.1 0.3 -2
v 0.1 0.4 2
v 0.1 0.4 1.9
v 0.1 0.4 1.8
v 0.1 0.4 1.4
v 0.1 0.4 1.3
v 0.1 0.4 1.2
v 0.1 0.4 1
v 0.1 0.4 0.9
v 0.1 0.4 0.8
v 0.1 0.4 0.4
v 0.1 0.4 0.3
v 0.1 0.4 0.2
v 0.1 0.4 -2.38419e-007
v 0.1 0.4 -0.1
v 0.1 0.4 -0.9
v 0.1 0.4 -1
v 0.1 0.5 2
v 0.1 0.5 1.9
v 0.1 0.5 1.3
v 0.1 0.5 1.2
v 0.1 0.5 1
v 0.1 0.5 0.9
v 0.1 0.5 0.7
v 0.1 0.5 0.5
v 0.1 0.5 0.4
v 0.1 0.5 0.3
v 0.1 0.5 -2.38419e-007
v 0.1 0.5 -0.1
v 0.1 0.5 -0.3
v 0.1 0.5 -0.4
v 0.1 0.5 -0.8
v 0.1 0.5 -0.9
v 0.1 0.5 -1.3
v 0.1 0.5 -1.4
v 0.1 0.5 -1.8
v 0.1 0.5 -1.9
v 0.1 0.6 1.2
v 0.1 0.6 0.9
v 0.1 0.6 0.7
v 0.1 0.6 0.5
v 0.1 0.6 0.2
v 0.1 0.6 -0.2
v 0.1 0.6 -0.3
v 0.1 0.6 -0.4
v 0.1 0.6 -0.8
v 0.1 0.6 -0.9
v 0.1 0.6 -1.3
v 0.1 0.6 -1.4
v 0.1 0.6 -1.8
v 0.1 0.6 -1.9
v 0.1 0.7 2
v 0.1 0.7 -2
v 0 -0.5 2
v 0 -0.4 2
v 0 -0.3 2
v 0 0.4 2
v 0 0.5 2
v 0 0.7 2
v 0.1 -0.5 2
v 0.1 -0.4 2
v 0.1 -0.3 2
v 0.1 0.4 2
v 0.1 0.5 2
v 0.1 0.7 2
v 0 -0.5 -2
v 0 -0.2 -2
v 0 -0.1 -2
v 0 0.2 -2
v 0 0.3 -2
v 0 0.7 -2
v 0.1 -0.5 -2
v 0.1 -0.2 -2
v 0.1 -0.1 -2
v 0.1 0.2 -2
v 0.1 0.3 -2
v 0.1 0.7 -2
v 0 -0.5 2
v 0.1 -0.5 2
v 0 -0.5 0.5
v 0.1 -0.5 0.5
v 0 -0.5 0.4
v 0.1 -0.5 0.4
v 0 -0.5 -0.3
v 0.1 -0.5 -0.3
v 0 -0.5 -0.4
v 0.1 -0.5 -0.4
v 0 -0.5 -0.9
v 0.1 -0.5 -0.9
v 0 -0.5 -1.2
v 0.1 -0.5 -1.2
v 0 -0.5 -1.6
v 0.1 -0.5 -1.6
v 0 -0.5 -1.8
v 0.1 -0.5 -1.8
v 0 -0.5 -2
v 0.1 -0.5 -2
v 0 0.7 2
v 0.1 0.7 2
v 0 0.7 -2
v 0.1 0.7 -2

# faces
f 11/2/1 2/2/1 1/2/1
f 12/2/1 2/2/1 11/2/1
f 13/2/1 2/2/1 12/2/1
f 14/2/1 2/2/1 13/2/1
f 15/2/1 2/2/1 14/2/1
f 16/3/1 3/3/1 2/3/1
f 16/2/1 2/2/1 15/2/1
f 17/2/1 4/2/1 3/2/1
f 17/3/1 3/3/1 16/3/1
f 18/2/1 4/2/1 17/2/1
f 19/2/1 4/2/1 18/2/1
f 20/3/1 5/3/1 4/3/1
f 20/2/1 4/2/1 19/2/1
f 21/2/1 6/2/1 5/2/1
f 21/1/1 7/1/1 6/1/1
f 22/2/1 8/2/1 7/2/1
f 22/1/1 7/1/1 21/1/1
f 23/3/1 12/3/1 11/3/1
f 24/2/1 13/2/1 12/2/1
f 24/3/1 12/3/1 23/3/1
f 25/2/1 13/2/1 24/2/1
f 26/1/1 14/1/1 13/1/1
f 26/2/1 13/2/1 25/2/1
f 27/1/1 14/1/1 26/1/1
f 28/4/1 15/4/1 14/4/1
f 28/1/1 14/1/1 27/1/1
f 29/4/1 15/4/1 28/4/1
f 30/2/1 16/2/1 15/2/1
f 30/4/1 15/4/1 29/4/1
f 30/2/1 17/2/1 16/2/1
f 31/2/1 17/2/1 30/2/1
f 32/3/1 18/3/1 17/3/1
f 32/2/1 17/2/1 31/2/1
f 33/2/1 19/2/1 18/2/1
f 34/2/1 19/2/1 33/2/1
f 35/2/1 19/2/1 34/2/1
f 36/3/1 20/3/1 19/3/1
f 36/2/1 19/2/1 35/2/1
f 37/3/1 5/3/1 20/3/1
f 37/3/1 20/3/1 36/3/1
f 37/2/1 21/2/1 5/2/1
f 37/2/1 22/2/1 21/2/1
f 38/2/1 22/2/1 37/2/1
f 39/2/1 22/2/1 38/2/1
f 40/2/1 22/2/1 39/2/1
f 41/1/1 9/1/1 8/1/1
f 41/2/1 22/2/1 40/2/1
f 41/2/1 8/2/1 22/2/1
f 42/2/1 10/2/1 9/2/1
f 42/1/1 9/1/1 41/1/1
f 43/2/1 25/2/1 24/2/1
f 43/2/1 24/2/1 23/2/1
f 43/3/1 26/3/1 25/3/1
f 44/2/1 27/2/1 26/2/1
f 44/3/1 26/3/1 43/3/1
f 45/4/1 29/4/1 28/4/1
f 45/2/1 27/2/1 44/2/1
f 45/4/1 28/4/1 27/4/1
f 46/4/1 29/4/1 45/4/1
f 47/3/1 30/3/1 29/3/1
f 47/4/1 29/4/1 46/4/1
f 48/2/1 31/2/1 30/2/1
f 48/3/1 30/3/1 47/3/1
f 49/3/1 32/3/1 31/3/1
f 49/2/1 31/2/1 48/2/1
f 50/3/1 18/3/1 32/3/1
f 50/3/1 32/3/1 49/3/1
f 50/2/1 33/2/1 18/2/1
f 51/3/1 34/3/1 33/3/1
f 51/2/1 33/2/1 50/2/1
f 52/2/1 35/2/1 34/2/1
f 52/3/1 34/3/1 51/3/1
f 53/3/1 36/3/1 35/3/1
f 53/2/1 35/2/1 52/2/1
f 53/3/1 37/3/1 36/3/1
f 53/3/1 38/3/1 37/3/1
f 54/2/1 39/2/1 38/2/1
f 54/3/1 38/3/1 53/3/1
f 55/2/1 41/2/1 40/2/1
f 55/2/1 42/2/1 41/2/1
f 56/2/1 42/2/1 55/2/1
f 57/2/1 42/2/1 56/2/1
f 58/2/1 10/2/1 42/2/1
f 58/2/1 42/2/1 57/2/1
f 59/2/1 10/2/1 58/2/1
f 60/2/1 10/2/1 59/2/1
f 61/2/1 44/2/1 43/2/1
f 62/2/1 44/2/1 61/2/1
f 63/4/1 45/4/1 44/4/1
f 63/2/1 44/2/1 62/2/1
f 63/4/1 46/4/1 45/4/1
f 64/4/1 46/4/1 63/4/1
f 65/2/1 49/2/1 48/2/1
f 65/4/1 46/4/1 64/4/1
f 65/2/1 52/2/1 51/2/1
f 65/2/1 51/2/1 50/2/1
f 65/2/1 50/2/1 49/2/1
f 65/2/1 53/2/1 52/2/1
f 65/2/1 48/2/1 47/2/1
f 65/2/1 47/2/1 46/2/1
f 65/2/1 54/2/1 53/2/1
f 66/2/1 39/2/1 54/2/1
f 66/2/1 54/2/1 65/2/1
f 66/3/1 40/3/1 39/3/1
f 67/2/1 55/2/1 40/2/1
f 67/3/1 40/3/1 66/3/1
f 68/3/1 56/3/1 55/3/1
f 68/2/1 55/2/1 67/2/1
f 69/2/1 57/2/1 56/2/1
f 69/3/1 56/3/1 68/3/1
f 70/3/1 58/3/1 57/3/1
f 70/2/1 57/2/1 69/2/1
f 71/2/1 59/2/1 58/2/1
f 71/3/1 58/3/1 70/3/1
f 72/3/1 60/3/1 59/3/1
f 72/2/1 59/2/1 71/2/1
f 73/3/1 60/3/1 72/3/1
f 74/2/1 43/2/1 23/2/1
f 74/2/1 61/2/1 43/2/1
f 75/1/1 62/1/1 61/1/1
f 75/2/1 61/2/1 74/2/1
f 76/4/1 64/4/1 63/4/1
f 76/1/1 62/1/1 75/1/1
f 76/4/1 63/4/1 62/4/1
f 77/2/1 65/2/1 64/2/1
f 77/4/1 64/4/1 76/4/1
f 77/2/1 70/2/1 69/2/1
f 77/2/1 69/2/1 68/2/1
f 77/2/1 66/2/1 65/2/1
f 77/2/1 67/2/1 66/2/1
f 77/2/1 68/2/1 67/2/1
f 78/2/1 70/2/1 77/2/1
f 79/1/1 72/1/1 71/1/1
f 79/2/1 70/2/1 78/2/1
f 79/1/1 71/1/1 70/1/1
f 80/2/1 73/2/1 72/2/1
f 80/1/1 72/1/1 79/1/1
f 81/4/1 76/4/1 75/4/1
f 81/4/1 75/4/1 74/4/1
f 81/2/1 80/2/1 79/2/1
f 81/4/1 78/4/1 77/4/1
f 81/4/1 77/4/1 76/4/1
f 81/2/1 79/2/1 78/2/1
f 82/2/1 80/2/1 81/2/1
f 83/2/1 74/2/1 23/2/1
f 84/4/1 81/4/1 74/4/1
f 84/2/1 74/2/1 83/2/1
f 85/4/1 81/4/1 84/4/1
f 86/4/1 81/4/1 85/4/1
f 87/4/1 81/4/1 86/4/1
f 88/4/1 81/4/1 87/4/1
f 89/4/1 81/4/1 88/4/1
f 90/4/1 81/4/1 89/4/1
f 91/3/1 82/3/1 81/3/1
f 91/4/1 81/4/1 90/4/1
f 92/2/1 80/2/1 82/2/1
f 92/3/1 82/3/1 91/3/1
f 93/2/1 80/2/1 92/2/1
f 94/2/1 73/2/1 80/2/1
f 94/2/1 80/2/1 93/2/1
f 95/2/1 73/2/1 94/2/1
f 96/2/1 83/2/1 23/2/1
f 97/3/1 84/3/1 83/3/1
f 97/2/1 83/2/1 96/2/1
f 98/2/1 85/2/1 84/2/1
f 98/3/1 84/3/1 97/3/1
f 99/3/1 86/3/1 85/3/1
f 99/2/1 85/2/1 98/2/1
f 100/4/1 87/4/1 86/4/1
f 100/3/1 86/3/1 99/3/1
f 101/4/1 87/4/1 100/4/1
f 102/2/1 88/2/1 87/2/1
f 102/4/1 87/4/1 101/4/1
f 103/2/1 88/2/1 102/2/1
f 104/2/1 88/2/1 103/2/1
f 105/2/1 88/2/1 104/2/1
f 106/2/1 88/2/1 105/2/1
f 107/2/1 88/2/1 106/2/1
f 108/2/1 88/2/1 107/2/1
f 109/3/1 89/3/1 88/3/1
f 109/2/1 88/2/1 108/2/1
f 110/2/1 90/2/1 89/2/1
f 110/3/1 89/3/1 109/3/1
f 111/3/1 93/3/1 92/3/1
f 111/2/1 90/2/1 110/2/1
f 111/3/1 91/3/1 90/3/1
f 111/3/1 92/3/1 91/3/1
f 112/2/1 94/2/1 93/2/1
f 112/3/1 93/3/1 111/3/1
f 113/3/1 95/3/1 94/3/1
f 113/2/1 94/2/1 112/2/1
f 114/3/1 95/3/1 113/3/1
f 115/2/1 96/2/1 23/2/1
f 116/3/1 97/3/1 96/3/1
f 116/2/1 96/2/1 115/2/1
f 117/2/1 98/2/1 97/2/1
f 117/3/1 97/3/1 116/3/1
f 117/2/1 99/2/1 98/2/1
f 117/2/1 101/2/1 100/2/1
f 117/2/1 100/2/1 99/2/1
f 118/4/1 102/4/1 101/4/1
f 118/2/1 101/2/1 117/2/1
f 118/4/1 103/4/1 102/4/1
f 119/4/1 103/4/1 118/4/1
f 120/2/1 104/2/1 103/2/1
f 120/4/1 103/4/1 119/4/1
f 121/2/1 104/2/1 120/2/1
f 122/1/1 105/1/1 104/1/1
f 122/2/1 104/2/1 121/2/1
f 123/2/1 106/2/1 105/2/1
f 123/1/1 105/1/1 122/1/1
f 124/2/1 106/2/1 123/2/1
f 125/3/1 107/3/1 106/3/1
f 125/2/1 106/2/1 124/2/1
f 126/3/1 107/3/1 125/3/1
f 127/3/1 107/3/1 126/3/1
f 128/3/1 107/3/1 127/3/1
f 129/3/1 109/3/1 108/3/1
f 129/2/1 108/2/1 107/2/1
f 130/2/1 110/2/1 109/2/1
f 130/3/1 109/3/1 129/3/1
f 130/2/1 114/2/1 113/2/1
f 130/2/1 113/2/1 112/2/1
f 130/2/1 111/2/1 110/2/1
f 130/2/1 112/2/1 111/2/1
f 131/3/1 116/3/1 115/3/1
f 132/2/1 117/2/1 116/2/1
f 132/3/1 116/3/1 131/3/1
f 132/2/1 119/2/1 118/2/1
f 132/2/1 118/2/1 117/2/1
f 133/4/1 121/4/1 120/4/1
f 133/2/1 119/2/1 132/2/1
f 133/4/1 120/4/1 119/4/1
f 134/4/1 121/4/1 133/4/1
f 135/2/1 124/2/1 123/2/1
f 135/4/1 121/4/1 134/4/1
f 135/2/1 122/2/1 121/2/1
f 135/2/1 123/2/1 122/2/1
f 136/2/1 124/2/1 135/2/1
f 137/2/1 124/2/1 136/2/1
f 138/2/1 124/2/1 137/2/1
f 139/3/1 125/3/1 124/3/1
f 139/2/1 124/2/1 138/2/1
f 140/2/1 126/2/1 125/2/1
f 140/3/1 125/3/1 139/3/1
f 141/3/1 127/3/1 126/3/1
f 141/1/1 128/1/1 127/1/1
f 142/3/1 107/3/1 128/3/1
f 142/1/1 128/1/1 141/1/1
f 143/2/1 129/2/1 107/2/1
f 143/2/1 130/2/1 129/2/1
f 144/2/1 130/2/1 143/2/1
f 145/2/1 130/2/1 144/2/1
f 146/2/1 130/2/1 145/2/1
f 147/2/1 114/2/1 130/2/1
f 147/2/1 130/2/1 146/2/1
f 148/2/1 114/2/1 147/2/1
f 149/2/1 114/2/1 148/2/1
f 150/2/1 114/2/1 149/2/1
f 151/2/1 134/2/1 133/2/1
f 151/2/1 133/2/1 132/2/1
f 151/2/1 132/2/1 131/2/1
f 151/4/1 135/4/1 134/4/1
f 151/4/1 136/4/1 135/4/1
f 152/2/1 137/2/1 136/2/1
f 152/4/1 136/4/1 151/4/1
f 153/1/1 138/1/1 137/1/1
f 153/2/1 137/2/1 152/2/1
f 154/2/1 139/2/1 138/2/1
f 154/1/1 138/1/1 153/1/1
f 154/2/1 140/2/1 139/2/1
f 155/3/1 141/3/1 126/3/1
f 155/2/1 140/2/1 154/2/1
f 155/2/1 126/2/1 140/2/1
f 155/3/1 142/3/1 141/3/1
f 156/3/1 107/3/1 142/3/1
f 156/3/1 142/3/1 155/3/1
f 156/2/1 143/2/1 107/2/1
f 157/3/1 144/3/1 143/3/1
f 157/2/1 143/2/1 156/2/1
f 158/2/1 145/2/1 144/2/1
f 158/3/1 144/3/1 157/3/1
f 159/3/1 146/3/1 145/3/1
f 159/2/1 145/2/1 158/2/1
f 160/2/1 147/2/1 146/2/1
f 160/3/1 146/3/1 159/3/1
f 161/3/1 148/3/1 147/3/1
f 161/2/1 147/2/1 160/2/1
f 162/2/1 149/2/1 148/2/1
f 162/3/1 148/3/1 161/3/1
f 163/1/1 150/1/1 149/1/1
f 163/2/1 149/2/1 162/2/1
f 164/2/1 114/2/1 150/2/1
f 164/1/1 150/1/1 163/1/1
f 165/2/1 155/2/1 154/2/1
f 165/2/1 163/2/1 162/2/1
f 165/2/1 164/2/1 163/2/1
f 165/2/1 159/2/1 158/2/1
f 165/2/1 160/2/1 159/2/1
f 165/2/1 154/2/1 153/2/1
f 165/2/1 161/2/1 160/2/1
f 165/2/1 151/2/1 131/2/1
f 165/2/1 152/2/1 151/2/1
f 165/2/1 162/2/1 161/2/1
f 165/2/1 157/2/1 156/2/1
f 165/2/1 153/2/1 152/2/1
f 165/2/1 156/2/1 155/2/1
f 165/2/1 158/2/1 157/2/1
f 166/2/1 114/2/1 164/2/1
f 166/2/1 164/2/1 165/2/1
f 167/2/2 168/2/2 177/2/2
f 177/2/2 168/2/2 178/2/2
f 178/2/2 168/2/2 179/2/2
f 179/2/2 168/2/2 180/2/2
f 180/2/2 168/2/2 181/2/2
f 168/3/2 169/3/2 182/3/2
f 181/2/2 168/2/2 182/2/2
f 169/2/2 170/2/2 183/2/2
f 182/3/2 169/3/2 183/3/2
f 183/2/2 170/2/2 184/2/2
f 184/2/2 170/2/2 185/2/2
f 170/3/2 171/3/2 186/3/2
f 185/2/2 170/2/2 186/2/2
f 171/2/2 172/2/2 187/2/2
f 172/1/2 173/1/2 187/1/2
f 173/2/2 174/2/2 188/2/2
f 187/1/2 173/1/2 188/1/2
f 177/3/2 178/3/2 189/3/2
f 178/2/2 179/2/2 190/2/2
f 189/3/2 178/3/2 190/3/2
f 190/2/2 179/2/2 191/2/2
f 179/1/2 180/1/2 192/1/2
f 191/2/2 179/2/2 192/2/2
f 192/1/2 180/1/2 193/1/2
f 180/4/2 181/4/2 194/4/2
f 193/1/2 180/1/2 194/1/2
f 194/4/2 181/4/2 195/4/2
f 181/2/2 182/2/2 196/2/2
f 195/4/2 181/4/2 196/4/2
f 182/2/2 183/2/2 196/2/2
f 196/2/2 183/2/2 197/2/2
f 183/3/2 184/3/2 198/3/2
f 197/2/2 183/2/2 198/2/2
f 184/2/2 185/2/2 199/2/2
f 199/2/2 185/2/2 200/2/2
f 200/2/2 185/2/2 201/2/2
f 185/3/2 186/3/2 202/3/2
f 201/2/2 185/2/2 202/2/2
f 186/3/2 171/3/2 203/3/2
f 202/3/2 186/3/2 203/3/2
f 171/2/2 187/2/2 203/2/2
f 187/2/2 188/2/2 203/2/2
f 203/2/2 188/2/2 204/2/2
f 204/2/2 188/2/2 205/2/2
f 205/2/2 188/2/2 206/2/2
f 174/1/2 175/1/2 207/1/2
f 206/2/2 188/2/2 207/2/2
f 188/2/2 174/2/2 207/2/2
f 175/2/2 176/2/2 208/2/2
f 207/1/2 175/1/2 208/1/2
f 190/2/2 191/2/2 209/2/2
f 189/2/2 190/2/2 209/2/2
f 191/3/2 192/3/2 209/3/2
f 192/2/2 193/2/2 210/2/2
f 209/3/2 192/3/2 210/3/2
f 194/4/2 195/4/2 211/4/2
f 210/2/2 193/2/2 211/2/2
f 193/4/2 194/4/2 211/4/2
f 211/4/2 195/4/2 212/4/2
f 195/3/2 196/3/2 213/3/2
f 212/4/2 195/4/2 213/4/2
f 196/2/2 197/2/2 214/2/2
f 213/3/2 196/3/2 214/3/2
f 197/3/2 198/3/2 215/3/2
f 214/2/2 197/2/2 215/2/2
f 198/3/2 184/3/2 216/3/2
f 215/3/2 198/3/2 216/3/2
f 184/2/2 199/2/2 216/2/2
f 199/3/2 200/3/2 217/3/2
f 216/2/2 199/2/2 217/2/2
f 200/2/2 201/2/2 218/2/2
f 217/3/2 200/3/2 218/3/2
f 201/3/2 202/3/2 219/3/2
f 218/2/2 201/2/2 219/2/2
f 202/3/2 203/3/2 219/3/2
f 203/3/2 204/3/2 219/3/2
f 204/2/2 205/2/2 220/2/2
f 219/3/2 204/3/2 220/3/2
f 206/2/2 207/2/2 221/2/2
f 207/2/2 208/2/2 221/2/2
f 221/2/2 208/2/2 222/2/2
f 222/2/2 208/2/2 223/2/2
f 208/2/2 176/2/2 224/2/2
f 223/2/2 208/2/2 224/2/2
f 224/2/2 176/2/2 225/2/2
f 225/2/2 176/2/2 226/2/2
f 209/2/2 210/2/2 227/2/2
f 227/2/2 210/2/2 228/2/2
f 210/4/2 211/4/2 229/4/2
f 228/2/2 210/2/2 229/2/2
f 211/4/2 212/4/2 229/4/2
f 229/4/2 212/4/2 230/4/2
f 214/2/2 215/2/2 231/2/2
f 230/4/2 212/4/2 231/4/2
f 217/2/2 218/2/2 231/2/2
f 216/2/2 217/2/2 231/2/2
f 215/2/2 216/2/2 231/2/2
f 218/2/2 219/2/2 231/2/2
f 213/2/2 214/2/2 231/2/2
f 212/2/2 213/2/2 231/2/2
f 219/2/2 220/2/2 231/2/2
f 220/2/2 205/2/2 232/2/2
f 231/2/2 220/2/2 232/2/2
f 205/3/2 206/3/2 232/3/2
f 206/2/2 221/2/2 233/2/2
f 232/3/2 206/3/2 233/3/2
f 221/3/2 222/3/2 234/3/2
f 233/2/2 221/2/2 234/2/2
f 222/2/2 223/2/2 235/2/2
f 234/3/2 222/3/2 235/3/2
f 223/3/2 224/3/2 236/3/2
f 235/2/2 223/2/2 236/2/2
f 224/2/2 225/2/2 237/2/2
f 236/3/2 224/3/2 237/3/2
f 225/3/2 226/3/2 238/3/2
f 237/2/2 225/2/2 238/2/2
f 238/3/2 226/3/2 239/3/2
f 189/2/2 209/2/2 240/2/2
f 209/2/2 227/2/2 240/2/2
f 227/1/2 228/1/2 241/1/2
f 240/2/2 227/2/2 241/2/2
f 229/4/2 230/4/2 242/4/2
f 241/1/2 228/1/2 242/1/2
f 228/4/2 229/4/2 242/4/2
f 230/2/2 231/2/2 243/2/2
f 242/4/2 230/4/2 243/4/2
f 235/2/2 236/2/2 243/2/2
f 234/2/2 235/2/2 243/2/2
f 231/2/2 232/2/2 243/2/2
f 232/2/2 233/2/2 243/2/2
f 233/2/2 234/2/2 243/2/2
f 243/2/2 236/2/2 244/2/2
f 237/1/2 238/1/2 245/1/2
f 244/2/2 236/2/2 245/2/2
f 236/1/2 237/1/2 245/1/2
f 238/2/2 239/2/2 246/2/2
f 245/1/2 238/1/2 246/1/2
f 241/4/2 242/4/2 247/4/2
f 240/4/2 241/4/2 247/4/2
f 245/2/2 246/2/2 247/2/2
f 243/4/2 244/4/2 247/4/2
f 242/4/2 243/4/2 247/4/2
f 244/2/2 245/2/2 247/2/2
f 247/2/2 246/2/2 248/2/2
f 189/2/2 240/2/2 249/2/2
f 240/4/2 247/4/2 250/4/2
f 249/2/2 240/2/2 250/2/2
f 250/4/2 247/4/2 251/4/2
f 251/4/2 247/4/2 252/4/2
f 252/4/2 247/4/2 253/4/2
f 253/4/2 247/4/2 254/4/2
f 254/4/2 247/4/2 255/4/2
f 255/4/2 247/4/2 256/4/2
f 247/3/2 248/3/2 257/3/2
f 256/4/2 247/4/2 257/4/2
f 248/2/2 246/2/2 258/2/2
f 257/3/2 248/3/2 258/3/2
f 258/2/2 246/2/2 259/2/2
f 246/2/2 239/2/2 260/2/2
f 259/2/2 246/2/2 260/2/2
f 260/2/2 239/2/2 261/2/2
f 189/2/2 249/2/2 262/2/2
f 249/3/2 250/3/2 263/3/2
f 262/2/2 249/2/2 263/2/2
f 250/2/2 251/2/2 264/2/2
f 263/3/2 250/3/2 264/3/2
f 251/3/2 252/3/2 265/3/2
f 264/2/2 251/2/2 265/2/2
f 252/4/2 253/4/2 266/4/2
f 265/3/2 252/3/2 266/3/2
f 266/4/2 253/4/2 267/4/2
f 253/2/2 254/2/2 268/2/2
f 267/4/2 253/4/2 268/4/2
f 268/2/2 254/2/2 269/2/2
f 269/2/2 254/2/2 270/2/2
f 270/2/2 254/2/2 271/2/2
f 271/2/2 254/2/2 272/2/2
f 272/2/2 254/2/2 273/2/2
f 273/2/2 254/2/2 274/2/2
f 254/3/2 255/3/2 275/3/2
f 274/2/2 254/2/2 275/2/2
f 255/2/2 256/2/2 276/2/2
f 275/3/2 255/3/2 276/3/2
f 258/3/2 259/3/2 277/3/2
f 276/2/2 256/2/2 277/2/2
f 256/3/2 257/3/2 277/3/2
f 257/3/2 258/3/2 277/3/2
f 259/2/2 260/2/2 278/2/2
f 277/3/2 259/3/2 278/3/2
f 260/3/2 261/3/2 279/3/2
f 278/2/2 260/2/2 279/2/2
f 279/3/2 261/3/2 280/3/2
f 189/2/2 262/2/2 281/2/2
f 262/3/2 263/3/2 282/3/2
f 281/2/2 262/2/2 282/2/2
f 263/2/2 264/2/2 283/2/2
f 282/3/2 263/3/2 283/3/2
f 264/2/2 265/2/2 283/2/2
f 266/2/2 267/2/2 283/2/2
f 265/2/2 266/2/2 283/2/2
f 267/4/2 268/4/2 284/4/2
f 283/2/2 267/2/2 284/2/2
f 268/4/2 269/4/2 284/4/2
f 284/4/2 269/4/2 285/4/2
f 269/2/2 270/2/2 286/2/2
f 285/4/2 269/4/2 286/4/2
f 286/2/2 270/2/2 287/2/2
f 270/1/2 271/1/2 288/1/2
f 287/2/2 270/2/2 288/2/2
f 271/2/2 272/2/2 289/2/2
f 288/1/2 271/1/2 289/1/2
f 289/2/2 272/2/2 290/2/2
f 272/3/2 273/3/2 291/3/2
f 290/2/2 272/2/2 291/2/2
f 291/3/2 273/3/2 292/3/2
f 292/3/2 273/3/2 293/3/2
f 293/3/2 273/3/2 294/3/2
f 274/3/2 275/3/2 295/3/2
f 273/2/2 274/2/2 295/2/2
f 275/2/2 276/2/2 296/2/2
f 295/3/2 275/3/2 296/3/2
f 279/2/2 280/2/2 296/2/2
f 278/2/2 279/2/2 296/2/2
f 276/2/2 277/2/2 296/2/2
f 277/2/2 278/2/2 296/2/2
f 281/3/2 282/3/2 297/3/2
f 282/2/2 283/2/2 298/2/2
f 297/3/2 282/3/2 298/3/2
f 284/2/2 285/2/2 298/2/2
f 283/2/2 284/2/2 298/2/2
f 286/4/2 287/4/2 299/4/2
f 298/2/2 285/2/2 299/2/2
f 285/4/2 286/4/2 299/4/2
f 299/4/2 287/4/2 300/4/2
f 289/2/2 290/2/2 301/2/2
f 300/4/2 287/4/2 301/4/2
f 287/2/2 288/2/2 301/2/2
f 288/2/2 289/2/2 301/2/2
f 301/2/2 290/2/2 302/2/2
f 302/2/2 290/2/2 303/2/2
f 303/2/2 290/2/2 304/2/2
f 290/3/2 291/3/2 305/3/2
f 304/2/2 290/2/2 305/2/2
f 291/2/2 292/2/2 306/2/2
f 305/3/2 291/3/2 306/3/2
f 292/3/2 293/3/2 307/3/2
f 293/1/2 294/1/2 307/1/2
f 294/3/2 273/3/2 308/3/2
f 307/1/2 294/1/2 308/1/2
f 273/2/2 295/2/2 309/2/2
f 295/2/2 296/2/2 309/2/2
f 309/2/2 296/2/2 310/2/2
f 310/2/2 296/2/2 311/2/2
f 311/2/2 296/2/2 312/2/2
f 296/2/2 280/2/2 313/2/2
f 312/2/2 296/2/2 313/2/2
f 313/2/2 280/2/2 314/2/2
f 314/2/2 280/2/2 315/2/2
f 315/2/2 280/2/2 316/2/2
f 299/2/2 300/2/2 317/2/2
f 298/2/2 299/2/2 317/2/2
f 297/2/2 298/2/2 317/2/2
f 300/4/2 301/4/2 317/4/2
f 301/4/2 302/4/2 317/4/2
f 302/2/2 303/2/2 318/2/2
f 317/4/2 302/4/2 318/4/2
f 303/1/2 304/1/2 319/1/2
f 318/2/2 303/2/2 319/2/2
f 304/2/2 305/2/2 320/2/2
f 319/1/2 304/1/2 320/1/2
f 305/2/2 306/2/2 320/2/2
f 292/3/2 307/3/2 321/3/2
f 320/2/2 306/2/2 321/2/2
f 306/2/2 292/2/2 321/2/2
f 307/3/2 308/3/2 321/3/2
f 308/3/2 273/3/2 322/3/2
f 321/3/2 308/3/2 322/3/2
f 273/2/2 309/2/2 322/2/2
f 309/3/2 310/3/2 323/3/2
f 322/2/2 309/2/2 323/2/2
f 310/2/2 311/2/2 324/2/2
f 323/3/2 310/3/2 324/3/2
f 311/3/2 312/3/2 325/3/2
f 324/2/2 311/2/2 325/2/2
f 312/2/2 313/2/2 326/2/2
f 325/3/2 312/3/2 326/3/2
f 313/3/2 314/3/2 327/3/2
f 326/2/2 313/2/2 327/2/2
f 314/2/2 315/2/2 328/2/2
f 327/3/2 314/3/2 328/3/2
f 315/1/2 316/1/2 329/1/2
f 328/2/2 315/2/2 329/2/2
f 316/2/2 280/2/2 330/2/2
f 329/1/2 316/1/2 330/1/2
f 320/2/2 321/2/2 331/2/2
f 328/2/2 329/2/2 331/2/2
f 329/2/2 330/2/2 331/2/2
f 324/2/2 325/2/2 331/2/2
f 325/2/2 326/2/2 331/2/2
f 319/2/2 320/2/2 331/2/2
f 326/2/2 327/2/2 331/2/2
f 297/2/2 317/2/2 331/2/2
f 317/2/2 318/2/2 331/2/2
f 327/2/2 328/2/2 331/2/2
f 322/2/2 323/2/2 331/2/2
f 318/2/2 319/2/2 331/2/2
f 321/2/2 322/2/2 331/2/2
f 323/2/2 324/2/2 331/2/2
f 330/2/2 280/2/2 332/2/2
f 331/2/2 330/2/2 332/2/2
f 339/2/3 334/2/3 333/2/3
f 340/3/3 335/3/3 334/3/3
f 340/2/3 334/2/3 339/2/3
f 341/2/3 336/2/3 335/2/3
f 341/3/3 335/3/3 340/3/3
f 342/3/3 337/3/3 336/3/3
f 342/2/3 336/2/3 341/2/3
f 343/2/3 338/2/3 337/2/3
f 343/3/3 337/3/3 342/3/3
f 344/2/3 338/2/3 343/2/3
f 345/2/4 346/2/4 351/2/4
f 346/3/4 347/3/4 352/3/4
f 351/2/4 346/2/4 352/2/4
f 347/2/4 348/2/4 353/2/4
f 352/3/4 347/3/4 353/3/4
f 348/3/4 349/3/4 354/3/4
f 353/2/4 348/2/4 354/2/4
f 349/2/4 350/2/4 355/2/4
f 354/3/4 349/3/4 355/3/4
f 355/2/4 350/2/4 356/2/4
f 359/2/5 358/2/5 357/2/5
f 360/2/5 358/2/5 359/2/5
f 361/3/5 360/3/5 359/3/5
f 362/3/5 360/3/5 361/3/5
f 363/2/5 362/2/5 361/2/5
f 364/2/5 362/2/5 363/2/5
f 365/3/5 364/3/5 363/3/5
f 366/3/5 364/3/5 365/3/5
f 367/2/5 366/2/5 365/2/5
f 368/2/5 366/2/5 367/2/5
f 369/1/5 368/1/5 367/1/5
f 370/1/5 368/1/5 369/1/5
f 371/2/5 370/2/5 369/2/5
f 372/2/5 370/2/5 371/2/5
f 373/1/5 372/1/5 371/1/5
f 374/1/5 372/1/5 373/1/5
f 375/2/5 374/2/5 373/2/5
f 376/2/5 374/2/5 375/2/5
f 377/2/6 378/2/6 379/2/6
f 379/2/6 378/2/6 380/2/6
