# MagicaVoxel @ Ephtracy

# group
o 

# material
mtllib fish.mtl
usemtl palette

# normals
vn -1 0 0
vn 1 0 0
vn 0 0 1
vn 0 0 -1
vn 0 -1 0
vn 0 1 0

# texcoords
vt 0.724609 0.5
vt 0.740234 0.5
vt 0.994141 0.5

# verts
v -1.6 0.3 1.8
v -1.6 0.3 1.7
v -1.6 0.3 1.3
v -1.6 0.3 1.2
v -1.6 0.3 1.1
v -1.6 0.4 1.9
v -1.6 0.4 1.8
v -1.6 0.4 1.7
v -1.6 0.4 1.6
v -1.6 0.4 1.4
v -1.6 0.4 1.3
v -1.6 0.4 1.2
v -1.6 0.4 1.1
v -1.6 0.5 1.9
v -1.6 0.5 1.8
v -1.6 0.5 1.7
v -1.6 0.5 1.6
v -1.6 0.5 1.4
v -1.6 0.5 1.3
v -1.6 0.5 1.2
v -1.6 0.5 1.1
v -1.6 0.6 1.8
v -1.6 0.6 1.7
v -1.6 0.6 1.6
v -1.6 0.6 1.4
v -1.6 0.6 1.3
v -1.6 0.6 1.2
v -1.6 0.6 1.1
v -1.6 0.7 1.6
v -1.6 0.7 1.4
v -1.5 0.3 1.8
v -1.5 0.3 1.7
v -1.5 0.3 1.3
v -1.5 0.3 1.2
v -1.5 0.3 1.1
v -1.5 0.4 1.9
v -1.5 0.4 1.8
v -1.5 0.4 1.7
v -1.5 0.4 1.6
v -1.5 0.4 1.4
v -1.5 0.4 1.3
v -1.5 0.4 1.2
v -1.5 0.4 1.1
v -1.5 0.5 1.9
v -1.5 0.5 1.8
v -1.5 0.5 1.7
v -1.5 0.5 1.6
v -1.5 0.5 1.4
v -1.5 0.5 1.3
v -1.5 0.5 1.2
v -1.5 0.5 1.1
v -1.5 0.6 1.8
v -1.5 0.6 1.7
v -1.5 0.6 1.6
v -1.5 0.6 1.4
v -1.5 0.6 1.3
v -1.5 0.6 1.2
v -1.5 0.6 1.1
v -1.5 0.7 1.6
v -1.5 0.7 1.4
v -1.6 0.4 1.9
v -1.6 0.5 1.9
v -1.5 0.4 1.9
v -1.5 0.5 1.9
v -1.6 0.3 1.8
v -1.6 0.4 1.8
v -1.6 0.5 1.8
v -1.6 0.6 1.8
v -1.5 0.3 1.8
v -1.5 0.4 1.8
v -1.5 0.5 1.8
v -1.5 0.6 1.8
v -1.6 0.6 1.6
v -1.6 0.7 1.6
v -1.5 0.6 1.6
v -1.5 0.7 1.6
v -1.6 0.3 1.2
v -1.6 0.4 1.2
v -1.6 0.5 1.2
v -1.6 0.6 1.2
v -1.5 0.3 1.2
v -1.5 0.4 1.2
v -1.5 0.5 1.2
v -1.5 0.6 1.2
v -1.6 0.6 1.4
v -1.6 0.7 1.4
v -1.5 0.6 1.4
v -1.5 0.7 1.4
v -1.6 0.3 1.3
v -1.6 0.4 1.3
v -1.6 0.5 1.3
v -1.6 0.6 1.3
v -1.5 0.3 1.3
v -1.5 0.4 1.3
v -1.5 0.5 1.3
v -1.5 0.6 1.3
v -1.6 0.4 1.2
v -1.6 0.5 1.2
v -1.5 0.4 1.2
v -1.5 0.5 1.2
v -1.6 0.3 1.1
v -1.6 0.4 1.1
v -1.6 0.5 1.1
v -1.6 0.6 1.1
v -1.5 0.3 1.1
v -1.5 0.4 1.1
v -1.5 0.5 1.1
v -1.5 0.6 1.1
v -1.6 0.3 1.8
v -1.5 0.3 1.8
v -1.6 0.3 1.7
v -1.5 0.3 1.7
v -1.6 0.3 1.3
v -1.5 0.3 1.3
v -1.6 0.3 1.2
v -1.5 0.3 1.2
v -1.6 0.3 1.1
v -1.5 0.3 1.1
v -1.6 0.4 1.9
v -1.5 0.4 1.9
v -1.6 0.4 1.8
v -1.5 0.4 1.8
v -1.6 0.4 1.3
v -1.5 0.4 1.3
v -1.6 0.4 1.2
v -1.5 0.4 1.2
v -1.6 0.5 1.2
v -1.5 0.5 1.2
v -1.6 0.5 1.1
v -1.5 0.5 1.1
v -1.6 0.4 1.2
v -1.5 0.4 1.2
v -1.6 0.4 1.1
v -1.5 0.4 1.1
v -1.6 0.5 1.9
v -1.5 0.5 1.9
v -1.6 0.5 1.8
v -1.5 0.5 1.8
v -1.6 0.5 1.3
v -1.5 0.5 1.3
v -1.6 0.5 1.2
v -1.5 0.5 1.2
v -1.6 0.6 1.8
v -1.5 0.6 1.8
v -1.6 0.6 1.7
v -1.5 0.6 1.7
v -1.6 0.6 1.6
v -1.5 0.6 1.6
v -1.6 0.6 1.4
v -1.5 0.6 1.4
v -1.6 0.6 1.3
v -1.5 0.6 1.3
v -1.6 0.6 1.2
v -1.5 0.6 1.2
v -1.6 0.6 1.1
v -1.5 0.6 1.1
v -1.6 0.7 1.6
v -1.5 0.7 1.6
v -1.6 0.7 1.4
v -1.5 0.7 1.4

# faces
f 7/1/1 2/1/1 1/1/1
f 8/2/1 3/2/1 2/2/1
f 8/1/1 2/1/1 7/1/1
f 9/2/1 3/2/1 8/2/1
f 10/2/1 3/2/1 9/2/1
f 11/2/1 3/2/1 10/2/1
f 12/1/1 5/1/1 4/1/1
f 13/1/1 5/1/1 12/1/1
f 14/1/1 7/1/1 6/1/1
f 15/3/1 8/3/1 7/3/1
f 15/1/1 7/1/1 14/1/1
f 16/2/1 9/2/1 8/2/1
f 16/3/1 8/3/1 15/3/1
f 17/1/1 10/1/1 9/1/1
f 17/2/1 9/2/1 16/2/1
f 18/2/1 11/2/1 10/2/1
f 18/1/1 10/1/1 17/1/1
f 19/1/1 12/1/1 11/1/1
f 19/2/1 11/2/1 18/2/1
f 20/1/1 12/1/1 19/1/1
f 22/1/1 16/1/1 15/1/1
f 23/2/1 17/2/1 16/2/1
f 23/1/1 16/1/1 22/1/1
f 23/2/1 19/2/1 18/2/1
f 23/2/1 18/2/1 17/2/1
f 24/2/1 19/2/1 23/2/1
f 25/2/1 19/2/1 24/2/1
f 26/2/1 19/2/1 25/2/1
f 27/1/1 21/1/1 20/1/1
f 28/1/1 21/1/1 27/1/1
f 29/1/1 25/1/1 24/1/1
f 30/1/1 25/1/1 29/1/1
f 31/1/2 32/1/2 37/1/2
f 32/2/2 33/2/2 38/2/2
f 37/1/2 32/1/2 38/1/2
f 38/2/2 33/2/2 39/2/2
f 39/2/2 33/2/2 40/2/2
f 40/2/2 33/2/2 41/2/2
f 34/1/2 35/1/2 42/1/2
f 42/1/2 35/1/2 43/1/2
f 36/1/2 37/1/2 44/1/2
f 37/3/2 38/3/2 45/3/2
f 44/1/2 37/1/2 45/1/2
f 38/2/2 39/2/2 46/2/2
f 45/3/2 38/3/2 46/3/2
f 39/1/2 40/1/2 47/1/2
f 46/2/2 39/2/2 47/2/2
f 40/2/2 41/2/2 48/2/2
f 47/1/2 40/1/2 48/1/2
f 41/1/2 42/1/2 49/1/2
f 48/2/2 41/2/2 49/2/2
f 49/1/2 42/1/2 50/1/2
f 45/1/2 46/1/2 52/1/2
f 46/2/2 47/2/2 53/2/2
f 52/1/2 46/1/2 53/1/2
f 48/2/2 49/2/2 53/2/2
f 47/2/2 48/2/2 53/2/2
f 53/2/2 49/2/2 54/2/2
f 54/2/2 49/2/2 55/2/2
f 55/2/2 49/2/2 56/2/2
f 50/1/2 51/1/2 57/1/2
f 57/1/2 51/1/2 58/1/2
f 54/1/2 55/1/2 59/1/2
f 59/1/2 55/1/2 60/1/2
f 63/1/3 62/1/3 61/1/3
f 64/1/3 62/1/3 63/1/3
f 69/1/3 66/1/3 65/1/3
f 70/1/3 66/1/3 69/1/3
f 71/1/3 68/1/3 67/1/3
f 72/1/3 68/1/3 71/1/3
f 75/1/3 74/1/3 73/1/3
f 76/1/3 74/1/3 75/1/3
f 81/1/3 78/1/3 77/1/3
f 82/1/3 78/1/3 81/1/3
f 83/1/3 80/1/3 79/1/3
f 84/1/3 80/1/3 83/1/3
f 85/1/4 86/1/4 87/1/4
f 87/1/4 86/1/4 88/1/4
f 89/2/4 90/2/4 93/2/4
f 93/2/4 90/2/4 94/2/4
f 91/2/4 92/2/4 95/2/4
f 95/2/4 92/2/4 96/2/4
f 97/1/4 98/1/4 99/1/4
f 99/1/4 98/1/4 100/1/4
f 101/1/4 102/1/4 105/1/4
f 105/1/4 102/1/4 106/1/4
f 103/1/4 104/1/4 107/1/4
f 107/1/4 104/1/4 108/1/4
f 111/1/5 110/1/5 109/1/5
f 112/1/5 110/1/5 111/1/5
f 113/2/5 112/2/5 111/2/5
f 114/2/5 112/2/5 113/2/5
f 117/1/5 116/1/5 115/1/5
f 118/1/5 116/1/5 117/1/5
f 121/1/5 120/1/5 119/1/5
f 122/1/5 120/1/5 121/1/5
f 125/1/5 124/1/5 123/1/5
f 126/1/5 124/1/5 125/1/5
f 129/1/5 128/1/5 127/1/5
f 130/1/5 128/1/5 129/1/5
f 131/1/6 132/1/6 133/1/6
f 133/1/6 132/1/6 134/1/6
f 135/1/6 136/1/6 137/1/6
f 137/1/6 136/1/6 138/1/6
f 139/1/6 140/1/6 141/1/6
f 141/1/6 140/1/6 142/1/6
f 143/1/6 144/1/6 145/1/6
f 145/1/6 144/1/6 146/1/6
f 145/2/6 146/2/6 147/2/6
f 147/2/6 146/2/6 148/2/6
f 149/2/6 150/2/6 151/2/6
f 151/2/6 150/2/6 152/2/6
f 153/1/6 154/1/6 155/1/6
f 155/1/6 154/1/6 156/1/6
f 157/1/6 158/1/6 159/1/6
f 159/1/6 158/1/6 160/1/6
