# MagicaVoxel @ Ephtracy

# group
o 

# material
mtllib anim_player_snowman_body.mtl
usemtl palette

# normals
vn -1 0 0
vn 1 0 0
vn 0 0 1
vn 0 0 -1
vn 0 -1 0
vn 0 1 0

# texcoords
vt 0.197266 0.5
vt 0.275391 0.5
vt 0.736328 0.5

# verts
v 1.7 2.4 -1.8
v 1.7 2.4 -2.2
v 1.7 2.5 -1.7
v 1.7 2.5 -1.8
v 1.7 2.5 -2
v 1.7 2.5 -2.2
v 1.7 2.5 -2.3
v 1.7 2.6 -1.9
v 1.7 2.6 -2
v 1.7 2.7 -1.7
v 1.7 2.7 -1.9
v 1.7 2.9 -1.7
v 1.7 2.9 -1.8
v 1.7 3.4 -1.8
v 1.7 3.4 -2.3
v 1.7 3.5 -1.8
v 1.7 3.5 -2.3
v 1.8 2.4 -1.7
v 1.8 2.4 -1.8
v 1.8 2.4 -2.2
v 1.8 2.4 -2.3
v 1.8 2.5 -1.7
v 1.8 2.5 -1.8
v 1.8 2.5 -2.2
v 1.8 2.5 -2.3
v 1.8 2.6 -2.3
v 1.8 2.6 -2.4
v 1.8 2.9 -1.7
v 1.8 2.9 -1.8
v 1.8 3.4 -1.7
v 1.8 3.4 -1.8
v 1.8 3.4 -2.3
v 1.8 3.4 -2.4
v 1.8 3.5 -1.7
v 1.8 3.5 -1.8
v 1.8 3.5 -2.3
v 1.8 3.5 -2.4
v 1.9 2.4 -2.3
v 1.9 2.4 -2.4
v 1.9 2.5 -2.3
v 1.9 2.5 -2.4
v 1.9 2.6 -2.3
v 1.9 2.6 -2.4
v 2 3.3 -1.6
v 2 3.3 -1.7
v 2 3.4 -1.6
v 2 3.4 -1.7
v 2.1 3.2 -1.6
v 2.1 3.2 -1.7
v 2.1 3.3 -1.6
v 2.1 3.3 -1.7
v 2.2 3 -1.6
v 2.2 3 -1.7
v 2.2 3.2 -1.6
v 2.2 3.2 -1.7
v 2.4 2.5 -1.8
v 2.4 2.5 -2
v 2.4 2.5 -2.2
v 2.4 2.6 -1.9
v 2.4 2.6 -2
v 2.4 2.7 -1.8
v 2.4 2.7 -1.9
v 2.4 2.8 -1.8
v 2.4 2.8 -1.9
v 2.4 3.1 -1.9
v 2.4 3.1 -2
v 2.4 3.2 -2
v 2.4 3.2 -2.2
v 1.8 2.5 -1.8
v 1.8 2.5 -2
v 1.8 2.5 -2.2
v 1.8 2.6 -1.9
v 1.8 2.6 -2
v 1.8 2.7 -1.8
v 1.8 2.7 -1.9
v 1.8 2.8 -1.8
v 1.8 2.8 -1.9
v 1.8 3.1 -1.9
v 1.8 3.1 -2
v 1.8 3.2 -2
v 1.8 3.2 -2.2
v 2.2 3.3 -1.6
v 2.2 3.3 -1.7
v 2.2 3.4 -1.6
v 2.2 3.4 -1.7
v 2.3 2.4 -2.3
v 2.3 2.4 -2.4
v 2.3 2.5 -2.3
v 2.3 2.5 -2.4
v 2.3 2.6 -2.3
v 2.3 2.6 -2.4
v 2.3 3 -1.6
v 2.3 3 -1.7
v 2.3 3.3 -1.6
v 2.3 3.3 -1.7
v 2.4 2.4 -1.7
v 2.4 2.4 -1.8
v 2.4 2.4 -2.2
v 2.4 2.4 -2.3
v 2.4 2.5 -1.7
v 2.4 2.5 -1.8
v 2.4 2.5 -2.2
v 2.4 2.5 -2.3
v 2.4 2.6 -2.2
v 2.4 2.6 -2.3
v 2.4 2.6 -2.4
v 2.4 2.9 -1.7
v 2.4 2.9 -1.8
v 2.4 3.4 -1.7
v 2.4 3.4 -1.8
v 2.4 3.4 -2.3
v 2.4 3.4 -2.4
v 2.4 3.5 -1.7
v 2.4 3.5 -1.8
v 2.4 3.5 -2.3
v 2.4 3.5 -2.4
v 2.5 2.4 -1.8
v 2.5 2.4 -2.2
v 2.5 2.5 -1.7
v 2.5 2.5 -1.8
v 2.5 2.5 -2
v 2.5 2.5 -2.2
v 2.5 2.6 -1.9
v 2.5 2.6 -2
v 2.5 2.6 -2.2
v 2.5 2.6 -2.3
v 2.5 2.7 -1.7
v 2.5 2.7 -1.9
v 2.5 2.9 -1.7
v 2.5 2.9 -1.8
v 2.5 3.4 -1.8
v 2.5 3.4 -2.3
v 2.5 3.5 -1.8
v 2.5 3.5 -2.3
v 2 3.3 -1.6
v 2 3.4 -1.6
v 2.1 3.2 -1.6
v 2.1 3.3 -1.6
v 2.2 3 -1.6
v 2.2 3.2 -1.6
v 2.2 3.3 -1.6
v 2.2 3.4 -1.6
v 2.3 3 -1.6
v 2.3 3.3 -1.6
v 1.7 2.5 -1.7
v 1.7 2.7 -1.7
v 1.7 2.9 -1.7
v 1.8 2.4 -1.7
v 1.8 2.5 -1.7
v 1.8 2.7 -1.7
v 1.8 2.8 -1.7
v 1.8 2.9 -1.7
v 1.8 3.4 -1.7
v 1.8 3.5 -1.7
v 1.9 2.8 -1.7
v 1.9 3 -1.7
v 2 3 -1.7
v 2 3.3 -1.7
v 2 3.4 -1.7
v 2.1 3.2 -1.7
v 2.1 3.3 -1.7
v 2.2 3 -1.7
v 2.2 3.2 -1.7
v 2.2 3.3 -1.7
v 2.2 3.4 -1.7
v 2.3 2.8 -1.7
v 2.3 3 -1.7
v 2.3 3.3 -1.7
v 2.4 2.4 -1.7
v 2.4 2.5 -1.7
v 2.4 2.7 -1.7
v 2.4 2.8 -1.7
v 2.4 2.9 -1.7
v 2.4 3.4 -1.7
v 2.4 3.5 -1.7
v 2.5 2.5 -1.7
v 2.5 2.7 -1.7
v 2.5 2.9 -1.7
v 1.7 2.4 -1.8
v 1.7 2.5 -1.8
v 1.7 2.9 -1.8
v 1.7 3.4 -1.8
v 1.7 3.5 -1.8
v 1.8 2.4 -1.8
v 1.8 2.5 -1.8
v 1.8 2.9 -1.8
v 1.8 3.4 -1.8
v 1.8 3.5 -1.8
v 2.4 2.4 -1.8
v 2.4 2.5 -1.8
v 2.4 2.9 -1.8
v 2.4 3.4 -1.8
v 2.4 3.5 -1.8
v 2.5 2.4 -1.8
v 2.5 2.5 -1.8
v 2.5 2.9 -1.8
v 2.5 3.4 -1.8
v 2.5 3.5 -1.8
v 1.8 2.5 -2.2
v 1.8 3.2 -2.2
v 2.4 2.5 -2.2
v 2.4 3.2 -2.2
v 1.8 2.5 -1.8
v 1.8 2.7 -1.8
v 1.8 2.8 -1.8
v 1.9 2.8 -1.8
v 2.3 2.8 -1.8
v 2.4 2.5 -1.8
v 2.4 2.7 -1.8
v 2.4 2.8 -1.8
v 1.8 2.8 -1.9
v 1.8 3.1 -1.9
v 1.9 2.8 -1.9
v 1.9 3.1 -1.9
v 2.1 3 -1.9
v 2.1 3.1 -1.9
v 2.2 2.9 -1.9
v 2.2 3 -1.9
v 2.3 2.8 -1.9
v 2.3 2.9 -1.9
v 2.4 2.8 -1.9
v 2.4 3.1 -1.9
v 1.8 3.1 -2
v 1.8 3.2 -2
v 2.4 3.1 -2
v 2.4 3.2 -2
v 1.7 2.4 -2.2
v 1.7 2.5 -2.2
v 1.8 2.4 -2.2
v 1.8 2.5 -2.2
v 2.4 2.4 -2.2
v 2.4 2.5 -2.2
v 2.4 2.6 -2.2
v 2.5 2.4 -2.2
v 2.5 2.5 -2.2
v 2.5 2.6 -2.2
v 1.7 2.5 -2.3
v 1.7 3.4 -2.3
v 1.7 3.5 -2.3
v 1.8 2.4 -2.3
v 1.8 2.5 -2.3
v 1.8 2.6 -2.3
v 1.8 3.4 -2.3
v 1.8 3.5 -2.3
v 1.9 2.4 -2.3
v 1.9 2.5 -2.3
v 1.9 2.6 -2.3
v 2.3 2.4 -2.3
v 2.3 2.5 -2.3
v 2.3 2.6 -2.3
v 2.4 2.4 -2.3
v 2.4 2.5 -2.3
v 2.4 2.6 -2.3
v 2.4 3.4 -2.3
v 2.4 3.5 -2.3
v 2.5 2.6 -2.3
v 2.5 3.4 -2.3
v 2.5 3.5 -2.3
v 1.8 2.6 -2.4
v 1.8 3.4 -2.4
v 1.8 3.5 -2.4
v 1.9 2.4 -2.4
v 1.9 2.5 -2.4
v 1.9 2.6 -2.4
v 2.3 2.4 -2.4
v 2.3 2.5 -2.4
v 2.3 2.6 -2.4
v 2.4 2.6 -2.4
v 2.4 3.4 -2.4
v 2.4 3.5 -2.4
v 1.8 2.4 -1.7
v 2.4 2.4 -1.7
v 1.7 2.4 -1.8
v 1.8 2.4 -1.8
v 2.4 2.4 -1.8
v 2.5 2.4 -1.8
v 1.7 2.4 -2.2
v 1.8 2.4 -2.2
v 1.9 2.4 -2.2
v 2.3 2.4 -2.2
v 2.4 2.4 -2.2
v 2.5 2.4 -2.2
v 1.8 2.4 -2.3
v 1.9 2.4 -2.3
v 2.3 2.4 -2.3
v 2.4 2.4 -2.3
v 1.9 2.4 -2.4
v 2.3 2.4 -2.4
v 1.7 2.5 -1.7
v 1.8 2.5 -1.7
v 2.4 2.5 -1.7
v 2.5 2.5 -1.7
v 1.7 2.5 -1.8
v 1.8 2.5 -1.8
v 2.4 2.5 -1.8
v 2.5 2.5 -1.8
v 1.7 2.5 -2.2
v 1.8 2.5 -2.2
v 1.7 2.5 -2.3
v 1.8 2.5 -2.3
v 2.4 2.6 -2.2
v 2.5 2.6 -2.2
v 1.8 2.6 -2.3
v 1.9 2.6 -2.3
v 2.3 2.6 -2.3
v 2.4 2.6 -2.3
v 2.5 2.6 -2.3
v 1.8 2.6 -2.4
v 1.9 2.6 -2.4
v 2.3 2.6 -2.4
v 2.4 2.6 -2.4
v 1.8 2.8 -1.8
v 1.9 2.8 -1.8
v 2.3 2.8 -1.8
v 2.4 2.8 -1.8
v 1.8 2.8 -1.9
v 1.9 2.8 -1.9
v 2.3 2.8 -1.9
v 2.4 2.8 -1.9
v 2.2 3 -1.6
v 2.3 3 -1.6
v 2.2 3 -1.7
v 2.3 3 -1.7
v 1.8 3.1 -1.9
v 1.9 3.1 -1.9
v 2.1 3.1 -1.9
v 2.4 3.1 -1.9
v 1.8 3.1 -2
v 2.4 3.1 -2
v 2.1 3.2 -1.6
v 2.2 3.2 -1.6
v 2.1 3.2 -1.7
v 2.2 3.2 -1.7
v 1.8 3.2 -2
v 2.4 3.2 -2
v 1.8 3.2 -2.2
v 2.4 3.2 -2.2
v 2 3.3 -1.6
v 2.1 3.3 -1.6
v 2 3.3 -1.7
v 2.1 3.3 -1.7
v 1.8 2.5 -1.8
v 2.4 2.5 -1.8
v 1.8 2.5 -2
v 2.4 2.5 -2
v 1.8 2.5 -2.2
v 2.4 2.5 -2.2
v 1.7 2.9 -1.7
v 1.8 2.9 -1.7
v 2.4 2.9 -1.7
v 2.5 2.9 -1.7
v 1.7 2.9 -1.8
v 1.8 2.9 -1.8
v 2.4 2.9 -1.8
v 2.5 2.9 -1.8
v 2.2 3.3 -1.6
v 2.3 3.3 -1.6
v 2.2 3.3 -1.7
v 2.3 3.3 -1.7
v 2 3.4 -1.6
v 2.2 3.4 -1.6
v 2 3.4 -1.7
v 2.2 3.4 -1.7
v 1.8 3.5 -1.7
v 2.4 3.5 -1.7
v 1.7 3.5 -1.8
v 1.8 3.5 -1.8
v 2.4 3.5 -1.8
v 2.5 3.5 -1.8
v 1.7 3.5 -2.3
v 1.8 3.5 -2.3
v 2.4 3.5 -2.3
v 2.5 3.5 -2.3
v 1.8 3.5 -2.4
v 2.4 3.5 -2.4

# faces
f 4/2/1 2/2/1 1/2/1
f 5/2/1 2/2/1 4/2/1
f 6/2/1 2/2/1 5/2/1
f 8/2/1 4/2/1 3/2/1
f 8/2/1 5/2/1 4/2/1
f 9/1/1 7/1/1 6/1/1
f 9/2/1 5/2/1 8/2/1
f 9/1/1 6/1/1 5/1/1
f 10/2/1 8/2/1 3/2/1
f 11/1/1 9/1/1 8/1/1
f 11/2/1 8/2/1 10/2/1
f 12/1/1 11/1/1 10/1/1
f 13/1/1 11/1/1 12/1/1
f 14/1/1 11/1/1 13/1/1
f 15/1/1 7/1/1 9/1/1
f 15/1/1 11/1/1 14/1/1
f 15/1/1 9/1/1 11/1/1
f 16/3/1 15/3/1 14/3/1
f 17/3/1 15/3/1 16/3/1
f 22/2/1 19/2/1 18/2/1
f 23/2/1 19/2/1 22/2/1
f 24/2/1 21/2/1 20/2/1
f 25/2/1 21/2/1 24/2/1
f 30/1/1 29/1/1 28/1/1
f 31/1/1 29/1/1 30/1/1
f 32/1/1 27/1/1 26/1/1
f 33/1/1 27/1/1 32/1/1
f 34/3/1 31/3/1 30/3/1
f 35/3/1 31/3/1 34/3/1
f 36/3/1 33/3/1 32/3/1
f 37/3/1 33/3/1 36/3/1
f 40/2/1 39/2/1 38/2/1
f 41/2/1 39/2/1 40/2/1
f 42/1/1 41/1/1 40/1/1
f 43/1/1 41/1/1 42/1/1
f 46/3/1 45/3/1 44/3/1
f 47/3/1 45/3/1 46/3/1
f 50/3/1 49/3/1 48/3/1
f 51/3/1 49/3/1 50/3/1
f 54/3/1 53/3/1 52/3/1
f 55/3/1 53/3/1 54/3/1
f 59/2/1 57/2/1 56/2/1
f 60/1/1 58/1/1 57/1/1
f 60/2/1 57/2/1 59/2/1
f 61/2/1 59/2/1 56/2/1
f 62/1/1 60/1/1 59/1/1
f 62/2/1 59/2/1 61/2/1
f 63/1/1 62/1/1 61/1/1
f 64/1/1 60/1/1 62/1/1
f 64/1/1 62/1/1 63/1/1
f 65/1/1 60/1/1 64/1/1
f 66/1/1 58/1/1 60/1/1
f 66/1/1 60/1/1 65/1/1
f 67/1/1 58/1/1 66/1/1
f 68/1/1 58/1/1 67/1/1
f 69/2/2 70/2/2 72/2/2
f 70/1/2 71/1/2 73/1/2
f 72/2/2 70/2/2 73/2/2
f 69/2/2 72/2/2 74/2/2
f 72/1/2 73/1/2 75/1/2
f 74/2/2 72/2/2 75/2/2
f 74/1/2 75/1/2 76/1/2
f 75/1/2 73/1/2 77/1/2
f 76/1/2 75/1/2 77/1/2
f 77/1/2 73/1/2 78/1/2
f 73/1/2 71/1/2 79/1/2
f 78/1/2 73/1/2 79/1/2
f 79/1/2 71/1/2 80/1/2
f 80/1/2 71/1/2 81/1/2
f 82/3/2 83/3/2 84/3/2
f 84/3/2 83/3/2 85/3/2
f 86/2/2 87/2/2 88/2/2
f 88/2/2 87/2/2 89/2/2
f 88/1/2 89/1/2 90/1/2
f 90/1/2 89/1/2 91/1/2
f 92/3/2 93/3/2 94/3/2
f 94/3/2 93/3/2 95/3/2
f 96/2/2 97/2/2 100/2/2
f 100/2/2 97/2/2 101/2/2
f 98/2/2 99/2/2 102/2/2
f 102/2/2 99/2/2 103/2/2
f 102/1/2 103/1/2 104/1/2
f 104/1/2 103/1/2 105/1/2
f 107/1/2 108/1/2 109/1/2
f 109/1/2 108/1/2 110/1/2
f 105/1/2 106/1/2 111/1/2
f 111/1/2 106/1/2 112/1/2
f 109/3/2 110/3/2 113/3/2
f 113/3/2 110/3/2 114/3/2
f 111/3/2 112/3/2 115/3/2
f 115/3/2 112/3/2 116/3/2
f 117/2/2 118/2/2 120/2/2
f 120/2/2 118/2/2 121/2/2
f 121/2/2 118/2/2 122/2/2
f 119/2/2 120/2/2 123/2/2
f 120/2/2 121/2/2 123/2/2
f 121/1/2 122/1/2 124/1/2
f 123/2/2 121/2/2 124/2/2
f 124/1/2 122/1/2 125/1/2
f 119/2/2 123/2/2 127/2/2
f 124/1/2 125/1/2 128/1/2
f 127/2/2 123/2/2 128/2/2
f 125/1/2 126/1/2 128/1/2
f 123/1/2 124/1/2 128/1/2
f 127/1/2 128/1/2 129/1/2
f 129/1/2 128/1/2 130/1/2
f 130/1/2 128/1/2 131/1/2
f 128/1/2 126/1/2 132/1/2
f 131/1/2 128/1/2 132/1/2
f 131/3/2 132/3/2 133/3/2
f 133/3/2 132/3/2 134/3/2
f 138/3/3 136/3/3 135/3/3
f 140/3/3 138/3/3 137/3/3
f 141/3/3 136/3/3 138/3/3
f 141/3/3 138/3/3 140/3/3
f 142/3/3 136/3/3 141/3/3
f 143/3/3 140/3/3 139/3/3
f 143/3/3 141/3/3 140/3/3
f 144/3/3 141/3/3 143/3/3
f 149/2/3 146/2/3 145/2/3
f 150/1/3 147/1/3 146/1/3
f 150/2/3 146/2/3 149/2/3
f 151/1/3 147/1/3 150/1/3
f 152/1/3 147/1/3 151/1/3
f 155/2/3 149/2/3 148/2/3
f 155/2/3 150/2/3 149/2/3
f 155/1/3 153/1/3 152/1/3
f 155/1/3 152/1/3 151/1/3
f 155/2/3 151/2/3 150/2/3
f 156/1/3 153/1/3 155/1/3
f 157/2/3 156/2/3 155/2/3
f 157/1/3 153/1/3 156/1/3
f 158/1/3 153/1/3 157/1/3
f 159/3/3 154/3/3 153/3/3
f 159/1/3 153/1/3 158/1/3
f 160/2/3 158/2/3 157/2/3
f 161/2/3 158/2/3 160/2/3
f 162/2/3 157/2/3 155/2/3
f 162/2/3 160/2/3 157/2/3
f 163/2/3 160/2/3 162/2/3
f 165/3/3 154/3/3 159/3/3
f 166/2/3 155/2/3 148/2/3
f 166/2/3 162/2/3 155/2/3
f 167/2/3 162/2/3 166/2/3
f 168/1/3 165/1/3 164/1/3
f 169/2/3 166/2/3 148/2/3
f 170/2/3 166/2/3 169/2/3
f 171/2/3 166/2/3 170/2/3
f 172/1/3 167/1/3 166/1/3
f 172/2/3 166/2/3 171/2/3
f 172/1/3 168/1/3 167/1/3
f 173/1/3 168/1/3 172/1/3
f 174/3/3 154/3/3 165/3/3
f 174/1/3 168/1/3 173/1/3
f 174/1/3 165/1/3 168/1/3
f 175/3/3 154/3/3 174/3/3
f 176/2/3 171/2/3 170/2/3
f 177/1/3 173/1/3 172/1/3
f 177/2/3 171/2/3 176/2/3
f 177/1/3 172/1/3 171/1/3
f 178/1/3 173/1/3 177/1/3
f 184/2/3 180/2/3 179/2/3
f 185/2/3 180/2/3 184/2/3
f 186/1/3 182/1/3 181/1/3
f 187/3/3 183/3/3 182/3/3
f 187/1/3 182/1/3 186/1/3
f 188/3/3 183/3/3 187/3/3
f 194/2/3 190/2/3 189/2/3
f 195/2/3 190/2/3 194/2/3
f 196/1/3 192/1/3 191/1/3
f 197/3/3 193/3/3 192/3/3
f 197/1/3 192/1/3 196/1/3
f 198/3/3 193/3/3 197/3/3
f 201/1/3 200/1/3 199/1/3
f 202/1/3 200/1/3 201/1/3
f 203/2/4 204/2/4 206/2/4
f 204/2/4 205/2/4 206/2/4
f 203/2/4 206/2/4 207/2/4
f 203/2/4 207/2/4 208/2/4
f 208/2/4 207/2/4 209/2/4
f 209/2/4 207/2/4 210/2/4
f 211/1/4 212/1/4 213/1/4
f 213/1/4 212/1/4 214/1/4
f 213/2/4 214/2/4 215/2/4
f 215/2/4 214/2/4 216/2/4
f 213/2/4 215/2/4 217/2/4
f 215/1/4 216/1/4 218/1/4
f 217/2/4 215/2/4 218/2/4
f 213/2/4 217/2/4 219/2/4
f 217/1/4 218/1/4 220/1/4
f 219/2/4 217/2/4 220/2/4
f 219/1/4 220/1/4 221/1/4
f 218/1/4 216/1/4 222/1/4
f 221/1/4 220/1/4 222/1/4
f 220/1/4 218/1/4 222/1/4
f 223/1/4 224/1/4 225/1/4
f 225/1/4 224/1/4 226/1/4
f 227/2/4 228/2/4 229/2/4
f 229/2/4 228/2/4 230/2/4
f 231/2/4 232/2/4 234/2/4
f 232/1/4 233/1/4 235/1/4
f 234/2/4 232/2/4 235/2/4
f 235/1/4 233/1/4 236/1/4
f 237/1/4 238/1/4 241/1/4
f 241/1/4 238/1/4 242/1/4
f 238/3/4 239/3/4 243/3/4
f 242/1/4 238/1/4 243/1/4
f 243/3/4 239/3/4 244/3/4
f 240/2/4 241/2/4 245/2/4
f 241/1/4 242/1/4 246/1/4
f 245/2/4 241/2/4 246/2/4
f 246/1/4 242/1/4 247/1/4
f 248/2/4 249/2/4 251/2/4
f 249/1/4 250/1/4 252/1/4
f 251/2/4 249/2/4 252/2/4
f 252/1/4 250/1/4 253/1/4
f 253/1/4 254/1/4 256/1/4
f 254/3/4 255/3/4 257/3/4
f 256/1/4 254/1/4 257/1/4
f 257/3/4 255/3/4 258/3/4
f 259/1/4 260/1/4 264/1/4
f 262/2/4 263/2/4 265/2/4
f 263/1/4 264/1/4 266/1/4
f 265/2/4 263/2/4 266/2/4
f 264/1/4 260/1/4 267/1/4
f 266/1/4 264/1/4 267/1/4
f 267/1/4 260/1/4 268/1/4
f 260/3/4 261/3/4 269/3/4
f 268/1/4 260/1/4 269/1/4
f 269/3/4 261/3/4 270/3/4
f 274/2/5 272/2/5 271/2/5
f 275/2/5 272/2/5 274/2/5
f 277/2/5 274/2/5 273/2/5
f 278/1/5 275/1/5 274/1/5
f 278/2/5 274/2/5 277/2/5
f 279/1/5 275/1/5 278/1/5
f 280/1/5 275/1/5 279/1/5
f 281/2/5 276/2/5 275/2/5
f 281/1/5 275/1/5 280/1/5
f 282/2/5 276/2/5 281/2/5
f 283/2/5 279/2/5 278/2/5
f 284/1/5 280/1/5 279/1/5
f 284/2/5 279/2/5 283/2/5
f 285/2/5 281/2/5 280/2/5
f 285/1/5 280/1/5 284/1/5
f 286/2/5 281/2/5 285/2/5
f 287/2/5 285/2/5 284/2/5
f 288/2/5 285/2/5 287/2/5
f 293/2/5 290/2/5 289/2/5
f 294/2/5 290/2/5 293/2/5
f 295/2/5 292/2/5 291/2/5
f 296/2/5 292/2/5 295/2/5
f 299/1/5 298/1/5 297/1/5
f 300/1/5 298/1/5 299/1/5
f 306/1/5 302/1/5 301/1/5
f 307/1/5 302/1/5 306/1/5
f 308/1/5 304/1/5 303/1/5
f 309/1/5 304/1/5 308/1/5
f 310/1/5 306/1/5 305/1/5
f 311/1/5 306/1/5 310/1/5
f 316/1/5 313/1/5 312/1/5
f 317/2/5 314/2/5 313/2/5
f 317/1/5 313/1/5 316/1/5
f 318/1/5 315/1/5 314/1/5
f 318/2/5 314/2/5 317/2/5
f 319/1/5 315/1/5 318/1/5
f 322/3/5 321/3/5 320/3/5
f 323/3/5 321/3/5 322/3/5
f 328/1/5 325/1/5 324/1/5
f 328/1/5 327/1/5 326/1/5
f 328/1/5 326/1/5 325/1/5
f 329/1/5 327/1/5 328/1/5
f 332/3/5 331/3/5 330/3/5
f 333/3/5 331/3/5 332/3/5
f 336/1/5 335/1/5 334/1/5
f 337/1/5 335/1/5 336/1/5
f 340/3/5 339/3/5 338/3/5
f 341/3/5 339/3/5 340/3/5
f 342/1/6 343/1/6 344/1/6
f 344/1/6 343/1/6 345/1/6
f 344/1/6 345/1/6 346/1/6
f 346/1/6 345/1/6 347/1/6
f 348/1/6 349/1/6 352/1/6
f 352/1/6 349/1/6 353/1/6
f 350/1/6 351/1/6 354/1/6
f 354/1/6 351/1/6 355/1/6
f 356/3/6 357/3/6 358/3/6
f 358/3/6 357/3/6 359/3/6
f 360/3/6 361/3/6 362/3/6
f 362/3/6 361/3/6 363/3/6
f 364/3/6 365/3/6 367/3/6
f 367/3/6 365/3/6 368/3/6
f 366/3/6 367/3/6 370/3/6
f 367/1/6 368/1/6 371/1/6
f 370/3/6 367/3/6 371/3/6
f 368/3/6 369/3/6 372/3/6
f 371/1/6 368/1/6 372/1/6
f 372/3/6 369/3/6 373/3/6
f 371/3/6 372/3/6 374/3/6
f 374/3/6 372/3/6 375/3/6
